<mxfile host="Electron" agent="Mozilla/5.0 (X11; Linux x86_64) AppleWebKit/537.36 (KHTML, like Gecko) draw.io/24.7.17 Chrome/128.0.6613.36 Electron/32.0.1 Safari/537.36" version="24.7.17">
  <diagram name="SSO" id="EaOtyYfISqSluWX9M8Tm">
    <mxGraphModel dx="3217" dy="2619" grid="1" gridSize="10" guides="1" tooltips="1" connect="1" arrows="1" fold="1" page="1" pageScale="1" pageWidth="827" pageHeight="1169" math="0" shadow="0">
      <root>
        <mxCell id="0" />
        <mxCell id="1" parent="0" />
        <mxCell id="91iZdlQBrzUNIYWVd6zU-33" style="edgeStyle=orthogonalEdgeStyle;rounded=0;orthogonalLoop=1;jettySize=auto;html=1;fillColor=#e1d5e7;strokeColor=#9673a6;strokeWidth=3;" parent="1" source="91iZdlQBrzUNIYWVd6zU-1" edge="1">
          <mxGeometry relative="1" as="geometry">
            <mxPoint x="530" y="810" as="targetPoint" />
            <Array as="points">
              <mxPoint x="-60" y="210" />
              <mxPoint x="-60" y="880" />
              <mxPoint x="530" y="880" />
            </Array>
          </mxGeometry>
        </mxCell>
        <mxCell id="91iZdlQBrzUNIYWVd6zU-34" value="Utilizar&amp;nbsp;&lt;div&gt;Produtos Parceiros&lt;/div&gt;" style="edgeLabel;html=1;align=center;verticalAlign=middle;resizable=0;points=[];" parent="91iZdlQBrzUNIYWVd6zU-33" vertex="1" connectable="0">
          <mxGeometry x="0.3492" y="-3" relative="1" as="geometry">
            <mxPoint as="offset" />
          </mxGeometry>
        </mxCell>
        <object placeholders="1" c4Name="Usuario Produtos" c4Type="Person" c4Description="Usuário de Produtos&#xa;  (B2B - B2B2C)" label="&lt;font style=&quot;font-size: 16px&quot;&gt;&lt;b&gt;%c4Name%&lt;/b&gt;&lt;/font&gt;&lt;div&gt;[%c4Type%]&lt;/div&gt;&lt;br&gt;&lt;div&gt;&lt;font style=&quot;font-size: 11px&quot;&gt;&lt;font color=&quot;#cccccc&quot;&gt;%c4Description%&lt;/font&gt;&lt;/div&gt;" id="91iZdlQBrzUNIYWVd6zU-1">
          <mxCell style="html=1;fontSize=11;dashed=0;whiteSpace=wrap;fillColor=#083F75;strokeColor=#06315C;fontColor=#ffffff;shape=mxgraph.c4.person2;align=center;metaEdit=1;points=[[0.5,0,0],[1,0.5,0],[1,0.75,0],[0.75,1,0],[0.5,1,0],[0.25,1,0],[0,0.75,0],[0,0.5,0]];resizable=0;" parent="1" vertex="1">
            <mxGeometry x="30" y="120" width="200" height="180" as="geometry" />
          </mxCell>
        </object>
        <mxCell id="91iZdlQBrzUNIYWVd6zU-6" style="edgeStyle=orthogonalEdgeStyle;rounded=0;orthogonalLoop=1;jettySize=auto;html=1;fillColor=#dae8fc;strokeColor=#6c8ebf;strokeWidth=2;" parent="1" source="91iZdlQBrzUNIYWVd6zU-2" target="91iZdlQBrzUNIYWVd6zU-3" edge="1">
          <mxGeometry relative="1" as="geometry" />
        </mxCell>
        <mxCell id="91iZdlQBrzUNIYWVd6zU-18" value="Autenticar" style="edgeLabel;html=1;align=center;verticalAlign=middle;resizable=0;points=[];" parent="91iZdlQBrzUNIYWVd6zU-6" vertex="1" connectable="0">
          <mxGeometry x="-0.0615" y="-2" relative="1" as="geometry">
            <mxPoint as="offset" />
          </mxGeometry>
        </mxCell>
        <object placeholders="1" c4Name="Parceiros" c4Type="Person" c4Description="Usuários Sistemicos&#xa; (B2B)" label="&lt;font style=&quot;font-size: 16px&quot;&gt;&lt;b&gt;%c4Name%&lt;/b&gt;&lt;/font&gt;&lt;div&gt;[%c4Type%]&lt;/div&gt;&lt;br&gt;&lt;div&gt;&lt;font style=&quot;font-size: 11px&quot;&gt;&lt;font color=&quot;#cccccc&quot;&gt;%c4Description%&lt;/font&gt;&lt;/div&gt;" id="91iZdlQBrzUNIYWVd6zU-2">
          <mxCell style="html=1;fontSize=11;dashed=0;whiteSpace=wrap;fillColor=#6C6477;strokeColor=#4D4D4D;fontColor=#ffffff;shape=mxgraph.c4.person2;align=center;metaEdit=1;points=[[0.5,0,0],[1,0.5,0],[1,0.75,0],[0.75,1,0],[0.5,1,0],[0.25,1,0],[0,0.75,0],[0,0.5,0]];resizable=0;" parent="1" vertex="1">
            <mxGeometry x="30" y="390" width="200" height="180" as="geometry" />
          </mxCell>
        </object>
        <mxCell id="91iZdlQBrzUNIYWVd6zU-13" style="edgeStyle=orthogonalEdgeStyle;rounded=0;orthogonalLoop=1;jettySize=auto;html=1;fillColor=#d5e8d4;strokeColor=#82b366;strokeWidth=2;" parent="1" source="91iZdlQBrzUNIYWVd6zU-3" edge="1">
          <mxGeometry relative="1" as="geometry">
            <mxPoint x="500" y="150" as="targetPoint" />
            <Array as="points">
              <mxPoint x="693" y="240" />
              <mxPoint x="500" y="240" />
            </Array>
          </mxGeometry>
        </mxCell>
        <mxCell id="91iZdlQBrzUNIYWVd6zU-16" value="Autenticado &amp;amp;&lt;div&gt;Autorizado&lt;/div&gt;" style="edgeLabel;html=1;align=center;verticalAlign=middle;resizable=0;points=[];" parent="91iZdlQBrzUNIYWVd6zU-13" vertex="1" connectable="0">
          <mxGeometry x="-0.0115" y="-2" relative="1" as="geometry">
            <mxPoint x="-4" as="offset" />
          </mxGeometry>
        </mxCell>
        <mxCell id="91iZdlQBrzUNIYWVd6zU-28" style="edgeStyle=orthogonalEdgeStyle;rounded=0;orthogonalLoop=1;jettySize=auto;html=1;fillColor=#ffe6cc;strokeColor=#d79b00;strokeWidth=2;" parent="1" source="91iZdlQBrzUNIYWVd6zU-3" edge="1">
          <mxGeometry relative="1" as="geometry">
            <mxPoint x="690" y="600" as="targetPoint" />
            <Array as="points">
              <mxPoint x="693" y="475" />
              <mxPoint x="690" y="475" />
              <mxPoint x="690" y="550" />
            </Array>
          </mxGeometry>
        </mxCell>
        <mxCell id="91iZdlQBrzUNIYWVd6zU-29" value="Usuário Autorizado&lt;div&gt;retorna dados para o&amp;nbsp;&lt;/div&gt;&lt;div&gt;redirect&lt;/div&gt;" style="edgeLabel;html=1;align=center;verticalAlign=middle;resizable=0;points=[];" parent="91iZdlQBrzUNIYWVd6zU-28" vertex="1" connectable="0">
          <mxGeometry x="-0.2318" y="1" relative="1" as="geometry">
            <mxPoint x="-34" y="1" as="offset" />
          </mxGeometry>
        </mxCell>
        <object placeholders="1" c4Name="SSO" c4Type="Software System" c4Description="Single Sing On" label="&lt;font style=&quot;font-size: 16px&quot;&gt;&lt;b&gt;%c4Name%&lt;/b&gt;&lt;/font&gt;&lt;div&gt;[%c4Type%]&lt;/div&gt;&lt;br&gt;&lt;div&gt;&lt;font style=&quot;font-size: 11px&quot;&gt;&lt;font color=&quot;#cccccc&quot;&gt;%c4Description%&lt;/font&gt;&lt;/div&gt;" id="91iZdlQBrzUNIYWVd6zU-3">
          <mxCell style="rounded=1;whiteSpace=wrap;html=1;labelBackgroundColor=none;fillColor=#1061B0;fontColor=#ffffff;align=center;arcSize=10;strokeColor=#0D5091;metaEdit=1;resizable=0;points=[[0.25,0,0],[0.5,0,0],[0.75,0,0],[1,0.25,0],[1,0.5,0],[1,0.75,0],[0.75,1,0],[0.5,1,0],[0.25,1,0],[0,0.75,0],[0,0.5,0],[0,0.25,0]];" parent="1" vertex="1">
            <mxGeometry x="573" y="290" width="240" height="120" as="geometry" />
          </mxCell>
        </object>
        <object placeholders="1" c4Name="Base de Usuários" c4Type="Container" c4Technology="e.g. " c4Description="Base unificada de todos os usuários" label="&lt;font style=&quot;font-size: 16px&quot;&gt;&lt;b&gt;%c4Name%&lt;/b&gt;&lt;/font&gt;&lt;div&gt;[%c4Type%:&amp;nbsp;%c4Technology%]&lt;/div&gt;&lt;br&gt;&lt;div&gt;&lt;font style=&quot;font-size: 11px&quot;&gt;&lt;font color=&quot;#E6E6E6&quot;&gt;%c4Description%&lt;/font&gt;&lt;/div&gt;" id="91iZdlQBrzUNIYWVd6zU-4">
          <mxCell style="shape=cylinder3;size=15;whiteSpace=wrap;html=1;boundedLbl=1;rounded=0;labelBackgroundColor=none;fillColor=#23A2D9;fontSize=12;fontColor=#ffffff;align=center;strokeColor=#0E7DAD;metaEdit=1;points=[[0.5,0,0],[1,0.25,0],[1,0.5,0],[1,0.75,0],[0.5,1,0],[0,0.75,0],[0,0.5,0],[0,0.25,0]];resizable=0;" parent="1" vertex="1">
            <mxGeometry x="870" y="421.47" width="240" height="120" as="geometry" />
          </mxCell>
        </object>
        <mxCell id="91iZdlQBrzUNIYWVd6zU-5" style="edgeStyle=orthogonalEdgeStyle;rounded=0;orthogonalLoop=1;jettySize=auto;html=1;entryX=0.004;entryY=0.375;entryDx=0;entryDy=0;entryPerimeter=0;fillColor=#dae8fc;strokeColor=#6c8ebf;strokeWidth=2;" parent="1" source="91iZdlQBrzUNIYWVd6zU-1" target="91iZdlQBrzUNIYWVd6zU-3" edge="1">
          <mxGeometry relative="1" as="geometry" />
        </mxCell>
        <mxCell id="91iZdlQBrzUNIYWVd6zU-17" value="Autenticar" style="edgeLabel;html=1;align=center;verticalAlign=middle;resizable=0;points=[];" parent="91iZdlQBrzUNIYWVd6zU-5" vertex="1" connectable="0">
          <mxGeometry x="-0.1863" y="1" relative="1" as="geometry">
            <mxPoint as="offset" />
          </mxGeometry>
        </mxCell>
        <object placeholders="1" c4Name="Produtos" c4Type="SystemScopeBoundary" c4Application="Software System" label="&lt;font style=&quot;font-size: 16px&quot;&gt;&lt;b&gt;&lt;div style=&quot;text-align: left&quot;&gt;%c4Name%&lt;/div&gt;&lt;/b&gt;&lt;/font&gt;&lt;div style=&quot;text-align: left&quot;&gt;[%c4Application%]&lt;/div&gt;" id="91iZdlQBrzUNIYWVd6zU-8">
          <mxCell style="rounded=1;fontSize=11;whiteSpace=wrap;html=1;dashed=1;arcSize=20;fillColor=none;strokeColor=#666666;fontColor=#333333;labelBackgroundColor=none;align=left;verticalAlign=bottom;labelBorderColor=none;spacingTop=0;spacing=10;dashPattern=8 4;metaEdit=1;rotatable=0;perimeter=rectanglePerimeter;noLabel=0;labelPadding=0;allowArrows=0;connectable=0;expand=0;recursiveResize=0;editable=1;pointerEvents=0;absoluteArcSize=1;points=[[0.25,0,0],[0.5,0,0],[0.75,0,0],[1,0.25,0],[1,0.5,0],[1,0.75,0],[0.75,1,0],[0.5,1,0],[0.25,1,0],[0,0.75,0],[0,0.5,0],[0,0.25,0]];" parent="1" vertex="1">
            <mxGeometry x="310" y="-230" width="840" height="380" as="geometry" />
          </mxCell>
        </object>
        <object placeholders="1" c4Name="CRM" c4Type="Software System" c4Description="Description of software system." label="&lt;font style=&quot;font-size: 16px&quot;&gt;&lt;b&gt;%c4Name%&lt;/b&gt;&lt;/font&gt;&lt;div&gt;[%c4Type%]&lt;/div&gt;&lt;br&gt;&lt;div&gt;&lt;font style=&quot;font-size: 11px&quot;&gt;&lt;font color=&quot;#cccccc&quot;&gt;%c4Description%&lt;/font&gt;&lt;/div&gt;" id="91iZdlQBrzUNIYWVd6zU-9">
          <mxCell style="rounded=1;whiteSpace=wrap;html=1;labelBackgroundColor=none;fillColor=#1061B0;fontColor=#ffffff;align=center;arcSize=10;strokeColor=#0D5091;metaEdit=1;resizable=0;points=[[0.25,0,0],[0.5,0,0],[0.75,0,0],[1,0.25,0],[1,0.5,0],[1,0.75,0],[0.75,1,0],[0.5,1,0],[0.25,1,0],[0,0.75,0],[0,0.5,0],[0,0.25,0]];" parent="1" vertex="1">
            <mxGeometry x="340" y="-210" width="240" height="120" as="geometry" />
          </mxCell>
        </object>
        <object placeholders="1" c4Name="ERP" c4Type="Software System" c4Description="Description of software system." label="&lt;font style=&quot;font-size: 16px&quot;&gt;&lt;b&gt;%c4Name%&lt;/b&gt;&lt;/font&gt;&lt;div&gt;[%c4Type%]&lt;/div&gt;&lt;br&gt;&lt;div&gt;&lt;font style=&quot;font-size: 11px&quot;&gt;&lt;font color=&quot;#cccccc&quot;&gt;%c4Description%&lt;/font&gt;&lt;/div&gt;" id="91iZdlQBrzUNIYWVd6zU-10">
          <mxCell style="rounded=1;whiteSpace=wrap;html=1;labelBackgroundColor=none;fillColor=#1061B0;fontColor=#ffffff;align=center;arcSize=10;strokeColor=#0D5091;metaEdit=1;resizable=0;points=[[0.25,0,0],[0.5,0,0],[0.75,0,0],[1,0.25,0],[1,0.5,0],[1,0.75,0],[0.75,1,0],[0.5,1,0],[0.25,1,0],[0,0.75,0],[0,0.5,0],[0,0.25,0]];" parent="1" vertex="1">
            <mxGeometry x="860" y="-210" width="240" height="120" as="geometry" />
          </mxCell>
        </object>
        <object placeholders="1" c4Name="Area do Cliente" c4Type="Software System" c4Description="Description of software system." label="&lt;font style=&quot;font-size: 16px&quot;&gt;&lt;b&gt;%c4Name%&lt;/b&gt;&lt;/font&gt;&lt;div&gt;[%c4Type%]&lt;/div&gt;&lt;br&gt;&lt;div&gt;&lt;font style=&quot;font-size: 11px&quot;&gt;&lt;font color=&quot;#cccccc&quot;&gt;%c4Description%&lt;/font&gt;&lt;/div&gt;" id="91iZdlQBrzUNIYWVd6zU-11">
          <mxCell style="rounded=1;whiteSpace=wrap;html=1;labelBackgroundColor=none;fillColor=#1061B0;fontColor=#ffffff;align=center;arcSize=10;strokeColor=#0D5091;metaEdit=1;resizable=0;points=[[0.25,0,0],[0.5,0,0],[0.75,0,0],[1,0.25,0],[1,0.5,0],[1,0.75,0],[0.75,1,0],[0.5,1,0],[0.25,1,0],[0,0.75,0],[0,0.5,0],[0,0.25,0]];" parent="1" vertex="1">
            <mxGeometry x="340" y="-70" width="240" height="120" as="geometry" />
          </mxCell>
        </object>
        <object placeholders="1" c4Name="Integrações Externas" c4Type="Software System" c4Description="Description of software system." label="&lt;font style=&quot;font-size: 16px&quot;&gt;&lt;b&gt;%c4Name%&lt;/b&gt;&lt;/font&gt;&lt;div&gt;[%c4Type%]&lt;/div&gt;&lt;br&gt;&lt;div&gt;&lt;font style=&quot;font-size: 11px&quot;&gt;&lt;font color=&quot;#cccccc&quot;&gt;%c4Description%&lt;/font&gt;&lt;/div&gt;" id="91iZdlQBrzUNIYWVd6zU-12">
          <mxCell style="rounded=1;whiteSpace=wrap;html=1;labelBackgroundColor=none;fillColor=#1061B0;fontColor=#ffffff;align=center;arcSize=10;strokeColor=#0D5091;metaEdit=1;resizable=0;points=[[0.25,0,0],[0.5,0,0],[0.75,0,0],[1,0.25,0],[1,0.5,0],[1,0.75,0],[0.75,1,0],[0.5,1,0],[0.25,1,0],[0,0.75,0],[0,0.5,0],[0,0.25,0]];" parent="1" vertex="1">
            <mxGeometry x="1450" y="-190" width="240" height="120" as="geometry" />
          </mxCell>
        </object>
        <object placeholders="1" c4Name="MicroServices" c4Type="Software System" c4Description="Description of software system." label="&lt;font style=&quot;font-size: 16px&quot;&gt;&lt;b&gt;%c4Name%&lt;/b&gt;&lt;/font&gt;&lt;div&gt;[%c4Type%]&lt;/div&gt;&lt;br&gt;&lt;div&gt;&lt;font style=&quot;font-size: 11px&quot;&gt;&lt;font color=&quot;#cccccc&quot;&gt;%c4Description%&lt;/font&gt;&lt;/div&gt;" id="91iZdlQBrzUNIYWVd6zU-14">
          <mxCell style="rounded=1;whiteSpace=wrap;html=1;labelBackgroundColor=none;fillColor=#1061B0;fontColor=#ffffff;align=center;arcSize=10;strokeColor=#0D5091;metaEdit=1;resizable=0;points=[[0.25,0,0],[0.5,0,0],[0.75,0,0],[1,0.25,0],[1,0.5,0],[1,0.75,0],[0.75,1,0],[0.5,1,0],[0.25,1,0],[0,0.75,0],[0,0.5,0],[0,0.25,0]];" parent="1" vertex="1">
            <mxGeometry x="1180" y="-190" width="240" height="120" as="geometry" />
          </mxCell>
        </object>
        <object placeholders="1" c4Name="Modulos CRM" c4Type="Software System" c4Description="Description of software system." label="&lt;font style=&quot;font-size: 16px&quot;&gt;&lt;b&gt;%c4Name%&lt;/b&gt;&lt;/font&gt;&lt;div&gt;[%c4Type%]&lt;/div&gt;&lt;br&gt;&lt;div&gt;&lt;font style=&quot;font-size: 11px&quot;&gt;&lt;font color=&quot;#cccccc&quot;&gt;%c4Description%&lt;/font&gt;&lt;/div&gt;" id="91iZdlQBrzUNIYWVd6zU-15">
          <mxCell style="rounded=1;whiteSpace=wrap;html=1;labelBackgroundColor=none;fillColor=#1061B0;fontColor=#ffffff;align=center;arcSize=10;strokeColor=#0D5091;metaEdit=1;resizable=0;points=[[0.25,0,0],[0.5,0,0],[0.75,0,0],[1,0.25,0],[1,0.5,0],[1,0.75,0],[0.75,1,0],[0.5,1,0],[0.25,1,0],[0,0.75,0],[0,0.5,0],[0,0.25,0]];" parent="1" vertex="1">
            <mxGeometry x="600" y="-210" width="240" height="120" as="geometry" />
          </mxCell>
        </object>
        <mxCell id="91iZdlQBrzUNIYWVd6zU-22" value="" style="shape=image;verticalLabelPosition=bottom;labelBackgroundColor=default;verticalAlign=top;aspect=fixed;imageAspect=0;image=data:image/png,iVBORw0KGgoAAAANSUhEUgAAAQIAAABVCAYAAACis+qrAAAABHNCSVQICAgIfAhkiAAAABl0RVh0U29mdHdhcmUAZ25vbWUtc2NyZWVuc2hvdO8Dvz4AAAAmdEVYdENyZWF0aW9uIFRpbWUAZG9tIDA2IGFiciAyMDI1IDEwOjU0OjM2Tv8epQAAIABJREFUeJztnXu8HFWV779rV3X3eZ/k5CEgQUBeIgkSuPIIoCIJCARRPzjqXEZFGRVRcAZ0HL2iDqioyIAwXgcQBESvrxHI8NDRoCRRXmaIIBAGTALyyvu8+nR31V73j127urrPI32Sc0IC/ftw6E531d67qmutvdZvrb22qKrSRBNNvKJhXuoBNNFEEy89moqgiSaa2HkUgXdgVGvfN9FEE9sOaXIETTTRRNMiaKKJJnYeRdBEE01MHsLt3aH3RESEkbwSEdneQwIy4wL8qLJjfKnG1UQT2wPb1SKoVwIqVQETkVGVgzu3+jrRroGqVvv3Y9Hq59mxN9HEyxHbTRFkhS1O3hsV+tVWFUNG8OrhPxapfT8RqO9f+4dQkyiG2G5RSTXRxM6OSVcENQKmSsVaAoSSWj41tJnjBtbTay0K2OTY7Slwvj+1CgraWyQ67mLseTegpQgCg1bimmtoKoQmXm6YVEWQtQKsKhYlZwx/thVOGNzAv1b6uT8ucV6pFwNoImgjzb6T4Rpk+xJVMEJ8/g/Q+1dgL7+FaMFX0EeegVwA1qK2aR008fLEpOQRpE2KgCoxCSspwvfLg/zj0GbWYwmc+BOjXNcyhQ/k24msJcgIW9VHT5vLNj2qe7DF45N/qCrEFgkD4puWYs+4DMIWBINGAzCtB3PpGZj3H+vOi2IIzDBSsYkmdmZMuCLQRMAkeR+pswI2Wss/DvVyXWUARDCJlSCJhHaLsLR1OgcGIbEqJlEGkwV1g0WtxQQB9vHniOd9ATb0IRKiVpEgQOMyECFnLiD45t/C1Ha0EiOhScYOyujcRhNN7AyYnMxCVWzy1oiwJCpxztBmHooriBFQQalO2SKCWssRQZ7F7dPIIUjGGnDWwcRZBKqK4DgJUYXIEs//KnrPQ0jQlhKEqUUioHYAZu9DcNWHkWP2B2sBAeOUXhNN7MyYcI5AVbGqmKTxS0p9HD+wnodshUAEVUFFayRTVQmM4Q9xmc8N9REg2EwozxF0vv3GOILRjvcWiwJiFYIA++X/wN6zHDJKIFVQuL4l7IQ/rSKefxH2ktvAGDBOgTX5giZ2dky4RWCT2XaTKn83tJFFlaEaV8D5DG6WTeHsdMcYKPy8bSqn5VpTvqDGcthWiyDx7G1sMWGAvfMh4lO+BhjEjtBYRlmJMaiNUUqYk48guOFsmNrmxmaaSZpN7LyY+KdXFQXyQF8ihUGqBGS4EoD03yrOWvj40GZWx1F6npBNPNqWPIJEqK0igcE+u5H4o9dCHCNqRp7Zs+6JtUgYIgj0DaGFML3eJprYmTHhisCb8u3G8IOWKexqAmJrnfCogowgNs4HQFUxYnjWxnxsaLPjGRJlkMb7tzZ8qOq4iSRfAAX78evR1c8gQUsaGhz9dEWMoFEJdpuJ+cHHMe2FxGBosgRN7NyYFEVgRIis5dVByL+1dLvP/bypIwiNCzGkQm+M4Y5oiEtK/c4qwK8DEER0KywCRUWcErIWCQ3223dhf7EECdrROE55gTEuDBU3+5urPoTZvQcbxYiZ3OhGE01sD0wKWSgiBCJEqpyWa+VT+Q6sWmqj73XICKLFRRu+WO7jt5USoRhiVSeIKg1ZBPVkoSTZgxIG2PuexH72ZsQUEKtVT2UUgU75gXgQc95CzGmHolGMBKaZXNTEywKT5hq4tQRKrMpFLZ28MSg4ZZCdeesFKEMMqggVlA+XNvOijatkozuxgXH410z2oIBuLhKfdTVaLCIEaRRhGJK+VB2foPEg5o2zMRefjsS2uhZBmzkETez8mBSq2wuIF/o2MVzbOoUuMVXBS1/rTs6w9EYM/xOX+eRQkoKMpMk7XrBHH0N29aCCVTCG+IKb0RWP1/IC9QopGykQQW0EXV2Yqz+MtBUcpWGaSqCJlw8mtx6BCAaI1HJQkOPSQhdnDW3C4Mz/EeN/GQLAJsrg/0WDHFvOc3ahnShJAtrSbFyzZiG2EAbYm5dhr74TCdoRa8cOP3hlYIC4grn075E5e2RSjMdwc3YCDFsSPoJ7U7+uolGlt6UFWlvbbv3YR/t85PZk3FGmLd2j+n5G6ndHWKyWvd+jru6dzJqFafKOtVgRQhHOGNzITZVBjDGJqT9COLHagEtXVkubGO5pncYhYb5mPcKW+k9TiJ94jvioC2F9bzWFeCwFoC7F2Mb9mP89n+DGj0EUo0Ywxmc6Nq2B7YnhC9EUay3GGExdHkccuxWjxpia36n5m42McSuCrIZLkmyHpwVkbrZv3q8r2KiWeYPredxWEO8qbEEZ+Bj+IUGee9qm0ZZaCyMrA9dkQg4iEEXEJ1yCvXs5Jps9ONY1GoPaIWT/PQiWfBF62p3wm2peQe011lkIFjBsURO/VMjOduVymd7e3poxWmvp6uqiUChstUVgrWXz5s3EPiqTtNva2kpHR8e42s3eQ5tkcwZBkH4/NDREsVgEoKOjg1wul34XRRFBEIzbCske29vbS6lUShWOtZZ8Pk9XV1d6/FgWwUj3YnvAWkuhUKCrq2vM53BcrkG2IRHB/wyxv2FQc7M9JHERYlWmmYCrC90cX1xPJXUNdOREozq+YHlc4oJSL1e2dCefZ/uofZ+mLBiwX/o59u4HkaBji0qgmlocQyGPfPcsZHqnCxVmogTVvp2yUa1egxhIbw5bdmNeKlhrCYKApUuX8r73vS8VLBGhUqlw9dVXs3DhQuI4HjazjgV/rZs3b2bBggU888wzhGGIiFAsFjnjjDP41re+hc0s626kPXAzvR/nX/7yF2677TbuvvtuHnvsMfr6+gDo6enhwAMP5Pjj57Nw4SnMnDkzvV4vyI38HllFcNZZZ7F48WJaWloAKJVKHH744dxyyy1jtpe9FyeccAJPP/00YRhuFzfBGMPQ0BDz58/nBz/4Qfp7j4RxKQJfV0CAtRVl2aaIY6aETMtXzbJYk1g7VblOQ4qqRNZyTK7AhXEnnyttxmCSxCGGcwbZWVdAMFxfKfKZQgevMQF2lFV/qsn/AgPr+rBX341I3i0w2gIUwAjEReQLH8S86QDU8wKpkpPqwcnaCWcpuPajTTD4J2g7CIIp7vMdTQlkfdZiscjzzz8/7Jj+/v702PGMP7UCreXpp5/mhRdeqPl+7dq16XH1Jv1Ibfn7HscxYRiyfv16LrnkEr73ve+xfv36Yec888wzrFixgh/96EfMmjWLc845h/POO498Pl+j1LZ0XdnvnnvuuXTcHs8++2xDXJW/F2vWrBl2L7YH/G87lvJpWBFosh4gViUU4fa1FT64vMisTsObpgYsnJnj2KkhuxSqzoJN3AfjG0hCipEqnyl0cI8tc2eliDFBNQV5JGSsjFCEirp8guq4ak9VBaNJuDGOkSBZ7LQFgfShQhsPYE48guAzp6S8gCTf+6xE6oS/sl4ZXK70LxUGlkPpf2D3S2DKSYpawOxYyiA7E9fP9saYmtljvOPOWo2FQiHtyxiTCnMj7XoeJqsE7rvvPj7wgQ/w6KOP1ozdWpuelyXHnn76aT7zmc9wxx13cN1117HnnnuO28IByOfz6TVA1TXwCnVUEm6Ue7E9LIIgCIjjmHw+XzOWkdCwIhBRrPV+Ofzn2ggR4emiclN/xE3PVJjZGvDmqQGnzAx509SAPVpNkkSUUQqJ3R4Yw3cL3RwRV3hOY8CMvooonRXcj+0Z+8zc7A9DfCqC/y5tL/mx7Bh9GEHjMrLrLpjvfsgphSh2/VlxPr/TaoBQeQEGlkP/PcLAfyuV5wRiwbQqEgr9y5SpJ7sxqCtcMG7mensh+2BOJMOdbWu87Yo4F8xaSxiGLFmyhNNOO43169cTBAHW2lQBZAXbKw7XhhAEAXfffTcnnngid9xxB3vttdcwxdHodWSvxW4hLb0entRsVBF4LmSkdhrp1xjTsDU3DovA+b8BwgulmN9ujNHAkWdGwIrwYsny479afvxsmZ4WwzFTAxbOCDmuJ2SvNpPJLBRK1rKHCbmypZt3FTdg0NqQYlbK0wvxZnby46mmfIA/zJ9u1Smd6m0cI1QISQqyUy/hVWcie0zHlmMkZzKnKOVnYeABoX+pMviQUHlRIFakIARtOGJCQQrK4HKorIPcdAULYupVVxOjwbtg1rrZe82aNbznPe9h/fr1qWUBVeslK9geXuA8Wfj444/zvve9j1/96le0tram528tfzMewtFay8aNG9NxbwtGutaR4Pvq7e2tGctIaEgReLfAJsTYb9bHrC1aJHSCFidSK0YwxtFnG8rKLc9G3PJsRHcLHNEdsnBGyPxpAft1BBQSkvCdYSvnhB1cWe5zYT7fYb0ySJGQhHXJiSO6CGNflf/PnRcYFyo8553IOw5DiJGE+yg9rQzcB31LlOLDQrTWnWhaIGjLJEh5zkDB5KDyPAz8EbrnA5Z0mcWOahXsSBABa6tk3fnnn89f//rXVPD9554VP+qoo9h3332J45iHH36Ye++9dxi/EAQBf/jDH7j00ku58MIL0xDj5F6H+7FbW1s555xz2LBhw5i8iLc6crkcDzzwAMuWLauxIIwxvPvd72bGjBlEUTRmW570nT17dnruaGhIEUgmFCdGuW1tBCqIJjNuapJBnKwurCoF2Bwpd70QcdcLER0FOLw74KQZORZMC3h9Z8C327pYIRV+Vy4RGoMVSQjErKRmY8E4dl7r3AHNKASGBfTwg9TkJqX7KgQGrfQTHH0QwbffDWoZekrov1fp/4NQfESI1wFGMHkh6PBmB0661VlMVevE7dlADP1LYcoCsMlvYJpaoCE4l8AJ75IlS/jpT386TAmoKgsWLOCrX/0qc+fOTc+11rJ48WIuuOACli9fnh7rTfkrrriCD33oQ+y+++41UYjJgBe+9vZ2LrroonGde/nll7Ns2bIaCygIAi6++GL23nvvrR7LSGjQInBCEyCsLccs3hBBQLIqMDNzC+m0p2SUggiShHX7I+XXa2N+/WJMa144pMvwrpk5/n5KB38OK6yzcSrpQSKs1jdInS+LI/jd52QEcdgFpMcjznJBBIkiVCtgy8i06ZT/4SwGflSgf3FM8XFDvNF1YAoQ+HCxTcKEGcIyaTZ9VXW+iRSEweVKtAmCbskooUbu+isbVQtPuO6664aFrlWV0047jR//+Mfkcrkak1tEeOtb38pdd93FSSedxAMPPJCeY4xhw4YN/OQnP+G8885LQ4qTReTW5N00YNJniVGfF1HP3/T29hLH8biUWBAEE5FH4N0CWLIx5vnULRih0Rr2zisFdceKOsEy7rCiVZatj1m2LqI1EI7co53j94VbSiUetBFRRikYSUxu7zLUd1WnADT7hYirLRgIVOKkIGkMYQfM3Yfg7bN5cdUbWX/ZHugmC4FJhD+xKSzOtE+vKXGFRg9yuONyUPmrMLgcOt+MIxwnb/J5mUEJw5D+/n5+97vfuU8yRN2MGTO46qqryOVyVCqVNBLhUS6XmTFjBldeeSXHHnss5XK55vtf/vKXfOpTn5pUa6AeWwqVQtU1GEs5edKxkfBro2hMEWiVA7jlxTq3AEbnv6TuTaIYrKfPRTChiwIUVfndKuWTU9v47K5dPFgp86u4xJ1xifvjCoNqQZXKCFmI2fuVEoZJr1YEYovaItgAWjqQ/3UAcuIc5IQ3YA7dg02/N6z7BzDWYrpNNURotcbk9y7Jlgg/7x6ICDZS+pZA11sE68nCHTh6sKPAC/2qVatYvXp1+pl3D971rnex2267pUqgnon3VsLhhx/OvHnzWLx4cSo8ACtXrqSvr4/Ozs5xs//jQdaKGc852fBufYp0/d94xzISGnMNRAgQNlUsv94Qg/HlucZ587KKIfnNbMZ9iIzy/j8P8vvODg7tyHNomOef6OAxG/FfUYlboxKP2kq6HNk9GP5mJWP17rtNhM4q2t2GHHgo5rTDkOMPQg6alQ5naJXy/OdiJBKkkJQxS9upzvrjf06S9Qh5GHhQiPqUoJNm9KBB+Jlx7dq1VCqVYd/PnTs3I/j1e2DUhivnzp3L4sWLa/INNmzYwMaNG2tSnV/JaEgRWCAU5b/WRzwzaAlDg6/4VaXepcrONfKM+2OSsKQmcfzNJctZjxT55WHthAIBygFBjgOCHOfkO1itETOS1dPeXahp1s/eXkFMaSf8r3+G10xPh6dWkchirfDcV4VoQ0DQqWgsSex6fCvVqkEOxx+IL8cmIK1C5Rll8EGh603+4Rz/SrhXGkZLvPH/LhQKmeNqH7p6hdDZ2Vnzb3CuQ6lUqjn+lYzGHIzENbhvswWrRGXFxu6mBon/Xp1GM0x/I/C/gSdzQsPSdRH/8uQQeeN4iDjJRlRRXmNC2hK/yM/Y2b+kKfcdIC055DXTk/0LYrck2YLkDWuvE/p/T6IESB+oRp6LbNhSpJrcJEZTBtMOCXGvYsvC0Ep3b5Ttk1X2ckG9kGaFvPp++Hn++y0l7zSVgENDFkGQ3MzP753npBkBt70Ycdf6mEf6Y+IomQ4DIUiW56ZVwTWjqRu63+ISgULh60+VOXpqyMkzctWy5tRWNd5ijncmpigiaGBQK5hQ6VsK664TpwRs9YHa0nOR9f81SW4imZU0FnQIbEUx7ULL/krb4dB5tNK6v7dUmkpgojHSM9DoZ004NJhH4ISuKye8uSfHm3tCLoqV+zfH3L424s71EQ/1WeJyVim4xCLnkWnqAozqOvjP1ZUpU6uc/eci9x4RsEtBiG2yaUodcTLWmJM3qbWhFkygVNbD89+ANDPRkroEIyGbrCSeLEysDo3BFhUiwXQoLa+HjiOUjqOg9QCXdFRtZ7gZ28TWYaJIsiYcGswjqG4uYpMc/9ZAOLYnx7E9Ob5sLQ9utvznuoi71kU82BsTl3HPe1CXDyBaTbGr9pCy8SJuyTKBsKbX8jcPDbJobjvtwbYt5fXkXzyo/PULUHxcyM1IfHqjCZOfXV6cVTiZjwQ0UmxJIFZMO7TNgfYjlc6joOUAMLnqCRongm+yymbHWoDURBPjWGuQpDhStRC8UsiL4ciphiOnhnzxtZY/9lpuXxdx59qIB/tiooq3FKhVCj4eT1KvANBYid1CAV7bbdi3zTAYK52B2wZtayEIGMUOQX4WtL5eKa8WbEkxeZc0hFEkSRZKTZSE4dcItAQ2cslFbYdAx5Hur2V/MG67Z5czESfWjygEkpoUTSXQxI6Khl2DLLJKwT/8PooQivDGKSFvnBLyf16rPNQbc8f6iP9c6yyFcjmpFShgEtdB1S1vxgiv7TCcOC3g5Bk5jpoS0J2r+u/bkp4rxs32YQ/s9k8Q98PgnxxXMHifUlrlyD3JKRRADUisMOiUUzgFWmdDx5FCx1FCy77VyIQCGuMEX5yF4cOrMox4aCqBJnY8bFXx0qxiGK4U3JJjTRqf2x0wtzvks3spf+qNuXNtxG3rIx4sWYaSlTgH5AzHd4ecMiPkqKkBnbnaQicGn9SzLa5BNTFIFYIO6DxS6TwSogEYeFjpW6pU7hfMagiGhEonyBuUlqOg6whoeS0YU01XdsKf/BnwJIjWRB6agt/Ejo9trmI8ulJIkvNi93kYwsHdIQd3h3xmH+WPKyx3/CbidfsYTnhzQHtH9awoduaFSZY4Q9Z331pk2hC3q7lNPICwHboPN3QfDgODlrvujnl0peVtx4XMnVNTa4kochO8Md5tyN4LaAp+EzsjtlkRjBijTVbkEYBL5VZsLBSfUPr+AMU/wNTHA97fGxAX4PkblPyhjmxrPxhyaT3IJLQn1UjgtsBzG0qiZJLPN5Rjlm6w3L424je9ESvbLcxVLtpkOOxew0nTQk6YHnJwV0AYZpSCemOgNoHF99VEEzsLtkoR+Fi6J/oUPPsHQTUxx0ZK8XHo/z30/14ZehxsrzuGFkVbQSzwFBQfh96fCPlZSvuhuPDbGyDX4wS36mpvnYCleQe4dl4sWe7ZFLHoxYjfbIhYM6jV6kXikqSGVFnSF7NkXcQXnhIO6Qp42/SAk6fnOKQrIJdxB5pKoYmdGeMoTFJFwn0nK/IUCUhX1cUlGHpM6V8KA/fB0BNK3GcwOUXyQtAN4LKONInj0yLQ6joqPyOUnoINP4f8q5XWg4VdzlPC6aBWklJh44dVl4fwfNly3mND3LMx5tmirZYgCwQTJOQl1SXWJnDqLlK4f0PM/etiLsqVObjTsGB6yMnTQw7rDmgNMq6NVqmDkTLbmoqhiR0N46hZmCiEZDmuBEloDIgHYejP0LcMBu6FoScFW3QZglKAsFur7oKtJu6kKaJWfY4OpuBYewyUnoSW/ZSgg6rS2VofXBUrQndo6I/h2T5LWDDYgHSxYZwlEdzigWrug4i7HiBWWL7ZsnxjmUueKvP6DqcU3jY95MgpAR1hLdkJtWHXHbG0eROvbDQYPsyY5n7m74Piw9CXzPyl1YIWFcklwt9FQtH7pAGvAIbn8leFQpNZX4kHoWU2vPpCl51nY5w1kE3zayQnONOHVaU1EG6Y3cqRA5aVfUldBa26BLUn+WG5NzVKIRAkcErhkT7LI5vLXLaqzH7thrcm4c95UwKm5CRtqKkAmthR0ZhrkGxpFG1w9fr7l7qltaU1QEmQPEhBMd0+PoebwWuKeIy9mMfVEBDcDkWCySu7fcYVB7GxW5kouJJp+PLiMrp9UFMZBrcOyCBEVunJGf79wBbmPzCY7MMg1YVSIzWY/WxYTQWcUgidUljZb1nZG/Od1RX2bDcc3xNw8swcR3YHzMxv/X5/k4Hsct2RPp/sfif62PGOYUcYx46Chjxut08grLtJWfVRZcOPobxGCQoQdCumJdntJynj5fYQ8CsDG1vN51bwuX7iAWXGR6B9LtjI7YEssatW5HcbAsbcsCRb1CEQR2rG7gMqVnnTtBwX7lvARpqGKBtePu0Zx8SnsChxQpZKIAQ5gwTCqgHLNasrvOPeAS5bXXYpzjoRodCJwZZq8U806ktujXXcaN9vi0CO1eZI342kKMc6bmdGQ4rAPxjthwphlxB0gik4QdBYUCvpjK7VibIh+PQc1cTU7hO63gLT3mPRstsfgMBAGKCxxf73arS3Wsstuxy49r37x6BaVsQVyuo2ZglFyAmUrHL+ngXmvyqHrdh0v4XMoBq4MclfZrs2VSVOUq8lEMI8SCgcMyXwN3OHsAagKgCjZY6O9u9G260XsPqKOyMd478fbXXpSMVHGhlPPUarAFR/Tr0FN1LezI7ye24LGiMLk8Uy7YcouVlQXi1I3s3+w/39xjv34TzEkY92UMntatn1swGmELgJt1SB5auJ73oIvfWP8Je1BPd+GelqxVUoqqUK/PvYKoEIm63lxMENzBBhYVjghLCFw0yOVnGFE695fSuH9cWsHdIkaqC1wu08my3cn7ob4M9Rlxy1Z7vb40GTyMWOsAIxK4C+SGaWzARX7ivrYjX6wHshC8MwrQlY399o5bbqBXBgYGDYuIGGdu/xGGlnpXK5TLFYTMdVv79B/ZgGBwdr+gfSjVZfDtxPg6XKAAumDdoPg6GVELa4FNtx8HU1JrF3G7xNYocs2mbY9auQn1oiXvwUesdy9M4/wcNrQJOHtWMqElQLk/j+s3yfe+8GFYgQi7IijlhhK1xcHuBAE/K2sMCJQYFjWwv88MA2TvnjIENWXU0FqkGOmtWS4/yt/TLlBdNydOWMq6sAKGZcCnMiMdIM98ADD1THm/n+Va96VXreeJf9qiodHR3MmDGD1atX17S9YsUKhoaGUkWTPa8+srJ8+XKgupGJP36XXXbZogD6dnbZZReAmlLoURTxyCOPMHv27GGVjH0fvpbhc889x+OPP5Z+55WGvz8vB0XQmGuA3/tP6DjardRTK6mrPBq8ie5fRRQxSehRFI2UuE+J+yxmimHm/ivpuPl6KnM+jz3uy+g3fgJ/etIR9bkO1LRk4phVC34k9yAdQzJ+I0IoBkT4s424tNTH/OIGDupbyy+nDnD0XkJPIMSRxVYcKWkgXeeQVmDyZOhYFmnGTSBQTp4R1EQmtvczkzXB/QPrS2Zv2rSJH/7wh9XxJpg5cyb77LMPIjLuct+qmu6deOCBBwJV5SAiPProoyxatIggCKhUKjVWgGq1nPfAwAA33XTTsLH19PSw3377bXFMftyzZ8+uKVzqz7v66qtT5eOVTFUJaLqByE033cTGjZvSisH+/De84Q2jujc7GxpMz/FEmtJ2sJLfHbSsvrz/cOFTPysn5aKMulLiItiyEvcK8QAEU6D7rcqrv2bY++yV9PzkX4i/+Qt4fA2CQcJOJCiACBrFiF8ckJKF1f6yfWfheUBLJqYvQmACQHhCI75e7OOB3fv59hF5vj+7jVN2DenJu8zIrFIIvBkrmlEM1CoFP0R1hVBe3Wo4empYXZf0ErkE/oH3u/v4yr+f+MQn+Mtf/pIKqn/Yjz76aGbOnEkcxzWzeaN9+eNPPPFEYLiffsEFF7By5cp0Y1C/bZnf51BEOPfcc1m5cuWwsR1xxBHstttuW6w+7M+bM2cOBxxwQI3QiwiLFy/m4osvTl2Y7BiCwFAoFPjtb3/LV77yFaBqUfj9BObPXzCie7MzomGyUHFhxLBTaDtU0TLphqB+klb8zE+1dp+4Ih5xrxIPKuF0oftkZfeLhb2uV2ZdClOPHyD48jXY3iEk142YvKtSFPuVQVnTNDHfqLVG/PsRfw+pPciqJhEE125oAjbFlm8GvZwxK+S2ue388ch2rj+4hdNfnWNmohTiikVjFyEJ/JgEandk8i8CFo6fFtKTM8SqSGIVbW9kze0gCDDG8NBDD3Haaadx0003jSjoH/jAB4CtI8S8FaGqnHTSSemuPNl+Vq1axfz58/npT39KqVQiCIL07+GHH+b000/n2muvHXFsZ575oVSgx1KsXvG1trZyxhln1FhE/v3nP/95zjnnHNasWVMzhs2bN/Od7/xfTj311HTvQKjuTXDMMcdw2GHDbBflAAANCklEQVSHpkplZ1cEDacYS0KgqSqd84SN/0G6DVp6g5MNTNSClgQtgeQgt7vSfgh0zIO2Q5TcdPBTpxIQn3Uz9r+fwASdaMUt70tDgyMyuk6DacK5pYqonq8YTeZS98LVUohwP/DySpkPDvZyfWs3r2k1vP/VBd7/anh2KOZ3G2NuWxvx2w0Rfy0m4cIAMK7Uu/WcQjIIdWYBC2eETgjTB/ClcQ3860UXXcRvfvMb7r33XorFYs02Yn4b7fnz5/O2t71tq3cB8s9DHMd0d3fz6U9/mo9+9KNp++CEdM2aNZx++unMmTOHgw8+mJaWFp566imWLVuWEop+7P7cY445hlNPXdjw2LxC+vCHP8x3v/tdVq1aNYwUveqqq7j55puZN28eu+++O5s2beL+++/nySefTMdar4w+97nPEQRBusHqzs4TNJxZCKBJVl3bIUp+N6i8IEhB8Rt/6pC4kF9ByO+RLB6aB21vgLAbPA2vFjSySD7A3rAEe/1dSNCOZk29MU2+qkVeT9hnKATw70cya+ssDKuKEcP3owGOq+T4u1w7JbWECLu1GN6za8B7ds2zrmy5Z2PEbWsjFq+PWDWYKAXnO7gKTLhlzru0Go7tqboFL9WD4s3qOI658cYbeeKJJwBqlID/vqenh8svvzwVvK3dLdhbBXEcc+aZZ7Jo0SIWLVpEGIZEUVQTjVixYgUrVqyoOX+ksXV3d3PllVemm5c4RTB6BMaP2VrL9OnTueKKK3j729+efueF2xjDxo0bWbRo0bAxZBWGH/unPvUpjj/++NRF8KT1zoyGl/CoJ8+Taj3th4IdUmwJ4l5FIyjso0z7O9jjCtjretjtn6HrTU4JqE2iDDZ5MPMB+tiz2POuRyR0bvdIhIPv3L2p/j9xQTyGKQGy4UlhdPOA1M9wmYrCeaU+HrUVCsZAUn0pVldFaXpeeMer8nzvoFaWH9XB7Ye18bG98uzbYcAqcSUp9R4rb5kWMiNvnBvyEhJKWaKuu7s73TIrawlYa2lvb+fmm2/mda97XUbQxm/2Vvtzj1cYhnz/+9/n8MMPT2fQekH0Jrk3vevH1tLSwo033sicOXNSEs+1MXbUIKuQFi5cyGWX/WuNm+T78sf5cWQJRN9XFEW8+93v5mtf+1rKnVT7Gdctagjb83lpWBE4dzjhClTomAcSQsv+woyz4DVXwV7fg13PFzqPdFyCWnEJRz4mb9JdENFSBXvWNbBxIyK5ZOGRjGwJpA9NcuNtkrCTRCRGcg18tMDtipS4AaPd2AzLLyJstDFnDW2mpDZt3CQ3yypEqsQKU3LC22bk+LcDW/njke385o1tnL9PntldLjrh3QKrulUCNZGoT+LxDzw48mvPPffk1ltv5YQTTqgTtK17GN31Vrco6+npYdGiRZx66qkpYSkiNcKYFf7s2GbNmsUtt9zCwoULhymSsW5pVgEaY4iiiHPP/STXXnstnZ2dNTsM+2P9OPzYsgrh7LPP5oYbbiCXy6VtTubvWp9rMZl9jWtRrw//gdJ+OOx9Pex1rbLLJ6DjMAjaXNVeTaoSOc7ACaIkfrNYhcAQX/hz7JLlSNBW6xKMBG9GCu7YXPLDSe2+hFmvQtRtiJITn/WYMW/H4A6ciyAsjYa4sNSX+P+SjkFIqAGosRQ6QuEtPTm+sX8r9x3RwZIj2zlxuvO8wh2ETFJVSqUSqkqlUiGOY7q6uvj4xz/OsmXLOO6440YQtK0ft/tdqjPy9OnT+cUvfsF3vvMd9tlnnzRUmA3dWWvTnX47Ojr4yEc+wrJly1iwYMFWjS17rHd3zjzzTO655x7e+c53pp9lx5Adh6rbMu3nP/85V111Ffl8vsatmYxZ27fp+/eulKpSLpdrOJ+JwrgKk2SJrrALwjnJ52ntPq1TLc4kT3+MWJEwIL79IfSb/4GYtnSvwTH7BUcg2iHM2QuRWdPcjkWmqghqx+keAKvQYwzn5dr551KvIxgz4cfRYEUwGL5R7ufYoMBJuRYiVYLMA+CvzrekWi313hII86bW3tqXkkzyfYsIs2bNIooiDjjgAObNm8epp57KfvvtB1Dn8277eOuF0M+0H/3oR3nve9/L7bffzp133smjjz7K2rVriaKI7u5u9t57b4455hgWLlzIAQccMAFjG24ZHHzwwfzsZz/jvvvu49Zbb+W+++5jzZo19Pf3UygU2HXXXZkzZw6nnHIK8+fPJ5fL1bgQ2fs6kci22d3dzfTp02ltbU0VVS6XSzMaJ7Jv0XGqlaw2rMbwqmZ7/dhS7ZWwvPbZTcRHfQHWvICYfLUq0MidJTn7BhsPYo6aTfDrz0EhTEIHwkhpzr5fn8SjwMLBDdwRDbkxpG7GKH2n12iZJSG/b5/ObmJSa8Fdp9SdUnsbPX84UUK1Lcj+Zn19feTzeVpaqjuveH93sh7wbAgymzDkYa2lr6+POI5pb29P9zWc6LFlz80SkR7FYpFisUgul0v3S8yOo95dmozfNNt2sVikv79/2LV3d3cThuGE/k7jVgTjgffhrE1cAmOI33kZ9pYlmKAdjROXQEcWyPQBJoIpHQRLv4x53W7Y5EfZ0szu/XMjwtM25qjBdfxVY0RMqiRGOAmvJIwI1sYsDNv4RdtUJ9w6PC99Z4T3hUcKwU3WddWb1FlffHuNbZjCTmZab21kj8sqi8lWAC81trLw15ZR/dFxSiAMsP96J3rLkoZChd7YUAOqMebyDyKv281lGBrjEo7G0GGpKShu6e8eQchVLd2JB5NlGOtOFJ8k5PmCgNuiIpeVBwilug/DthBp2xtZn9L/Zckwj8kmNOuFyUcJsiTdZI+tvh0fKYCq8GejGfWz8WQrgSzvkL0v2b/J4AgmxyJQn0DjwmgEBv3D/xAf9yUoxYia4UkAmXPxD0xg0Lgf8+FTCK7+kNvN2BjENGZuZwU2RgnF8I/FzXyr3IeRoFpcZNiJydgyXEABWNw2jSPCAnGyKWuarvAynCGaeGVhUiwCFZcZqHGSfrxpAHvWv0NxCMEvwBnlZO9TG4PGRWTO/gTffB9YixppWAm4pqphR5Mw/BcVOjk8aMFqxi0ZdmJ1LP51COXDQ5vZmFgy8XaaIZpoYntgwhWBqibx/eTVGOz5N2MffgIJWhsPFRIjrW0E1/490t2aRgJoUAl4iAhI1TJoNYZrWrroEkNagy3pd5QGUHVZh4/EFc730YfEdVC2b+JHE01MBiZcEYj4BUouVGhvXIK99peOF/DZWGP59oAaQW0J89W/xRy2d8ILSNr2uKHu3ECESJWDwjzfaulyG51Ql4k07FzN8AWG75UHuKE86PgC1XErpiaa2BExKRaBWsWEAXblc9hzr0ckoGbR3SiCo6pIEDhe4F3HYj65AE14gWwseLxwuichD3GZgR/KtXNG2FYNCY5hEaTjS5KWzi31sjKuECahyKZF0MTOjslxDYxgNw9i33slunEjEuSTAqijhevI8AJDyF57YK58f7VSsXHpqtsy80pq4gtG3Zbu32rpYl8Tjs0XVBtIXYRNavmb4kZ6rat12FQETezsmHjXwL+KwOt3Bwwald1Mrz7vP3uCJHk9gmIhDAn+/Sxklykuz8BIsmBnYkJHis86VKabgGtappBjpO3LEzgSIFlvIGlxk4NMrvYammhiJ8akcAQo0NVKcMPHCK75OPS0o/GAUwbZxT+JgCmOVFQ7iPnndyHHH+RChUnp8jSBcSLg49QJX3BsrsCF+U7nInihT4+FdEMTBIulB+Ga1inc2DaVLj+2CRpaE028VJjwPIJqCF5d+nBg0EeeIf7INbD0IUTaQEwaPfC8gI0HMG89lOCOT4MxiT8+cjrvNo8xm2CTJAktLG7grko2BdldiGhSZEQtRwctfKe1m4OCHLHqS1pjoIkmJhITn1CUhNTSGH5sIQygWCa+8GfoN24BFAkKLopgBLUV2GUqwdIvI3vPTF2C7ZHF5cnCNTbmyMF1POdTkHELJ20SVbgg38GXCl20Gkc2BlQr7kJTITSxc2PiE4okszkFIGHgzPzWHOHX30tw26dh9xlo3O9chWRZs7niTMzeM2tDhZNIwtWnIL8mCLmq0A0k6wkAq5bdxXBrWw9fb+2mVVyipK+GvL3STptoYrIxaWsN0nwCVbcPgeKE/JS5BEu+iLz9KDQeRKM+5NyFmNPfmIQKR9/lZsLHVxNStLwj38q5uQ5itVgb8/awhSXt01kYthJZt1F64BVUM3+giZcRJnX1oUcNbxBZyCVVab70M/R3jxHcdgG05JK9DyeHFxh1bNkFHCIMqXJKcQNvDvJ8oeCWolZU0+IiO/uqwyaaGAnbRRFkeQMg5QBUBCoRkgtfcl87239Fk8pGuKKmgR93Uwk08TLF9lEECeoLVIi6GgVZAXsphG2k/q3nOJqEYBOvAGxXRQDDlcFI718KpP0nex3sKONqoontge2uCJpoookdD/8fVOyQ5uVAFCQAAAAASUVORK5CYII=;" parent="1" vertex="1">
          <mxGeometry x="870" y="270" width="138" height="45.47" as="geometry" />
        </mxCell>
        <object placeholders="1" c4Name="Produtos Parceiros" c4Type="ContainerScopeBoundary" c4Application="Federação de Autenticação" label="&lt;font style=&quot;font-size: 16px&quot;&gt;&lt;b&gt;&lt;div style=&quot;text-align: left&quot;&gt;%c4Name%&lt;/div&gt;&lt;/b&gt;&lt;/font&gt;&lt;div style=&quot;text-align: left&quot;&gt;[%c4Application%]&lt;/div&gt;" id="91iZdlQBrzUNIYWVd6zU-23">
          <mxCell style="rounded=1;fontSize=11;whiteSpace=wrap;html=1;dashed=1;arcSize=20;fillColor=none;strokeColor=#666666;fontColor=#333333;labelBackgroundColor=none;align=left;verticalAlign=bottom;labelBorderColor=none;spacingTop=0;spacing=10;dashPattern=8 4;metaEdit=1;rotatable=0;perimeter=rectanglePerimeter;noLabel=0;labelPadding=0;allowArrows=0;connectable=0;expand=0;recursiveResize=0;editable=1;pointerEvents=0;absoluteArcSize=1;points=[[0.25,0,0],[0.5,0,0],[0.75,0,0],[1,0.25,0],[1,0.5,0],[1,0.75,0],[0.75,1,0],[0.5,1,0],[0.25,1,0],[0,0.75,0],[0,0.5,0],[0,0.25,0]];" parent="1" vertex="1">
            <mxGeometry x="257" y="600" width="803" height="210" as="geometry" />
          </mxCell>
        </object>
        <object placeholders="1" c4Name="Gerenciador Backlog" c4Type="Software System" c4Description="Gerenciador de Backlog e Futuras funcionalidades dos produtos" label="&lt;font style=&quot;font-size: 16px&quot;&gt;&lt;b&gt;%c4Name%&lt;/b&gt;&lt;/font&gt;&lt;div&gt;[%c4Type%]&lt;/div&gt;&lt;br&gt;&lt;div&gt;&lt;font style=&quot;font-size: 11px&quot;&gt;&lt;font color=&quot;#cccccc&quot;&gt;%c4Description%&lt;/font&gt;&lt;/div&gt;" id="91iZdlQBrzUNIYWVd6zU-24">
          <mxCell style="rounded=1;whiteSpace=wrap;html=1;labelBackgroundColor=none;fillColor=#8C8496;fontColor=#ffffff;align=center;arcSize=10;strokeColor=#736782;metaEdit=1;resizable=0;points=[[0.25,0,0],[0.5,0,0],[0.75,0,0],[1,0.25,0],[1,0.5,0],[1,0.75,0],[0.75,1,0],[0.5,1,0],[0.25,1,0],[0,0.75,0],[0,0.5,0],[0,0.25,0]];" parent="1" vertex="1">
            <mxGeometry x="277" y="630" width="240" height="120" as="geometry" />
          </mxCell>
        </object>
        <object placeholders="1" c4Name="Gerenciador de Tickets" c4Type="Software System" c4Description="Gerenciador de tickets de atentimento aos usuários" label="&lt;font style=&quot;font-size: 16px&quot;&gt;&lt;b&gt;%c4Name%&lt;/b&gt;&lt;/font&gt;&lt;div&gt;[%c4Type%]&lt;/div&gt;&lt;br&gt;&lt;div&gt;&lt;font style=&quot;font-size: 11px&quot;&gt;&lt;font color=&quot;#cccccc&quot;&gt;%c4Description%&lt;/font&gt;&lt;/div&gt;" id="91iZdlQBrzUNIYWVd6zU-25">
          <mxCell style="rounded=1;whiteSpace=wrap;html=1;labelBackgroundColor=none;fillColor=#8C8496;fontColor=#ffffff;align=center;arcSize=10;strokeColor=#736782;metaEdit=1;resizable=0;points=[[0.25,0,0],[0.5,0,0],[0.75,0,0],[1,0.25,0],[1,0.5,0],[1,0.75,0],[0.75,1,0],[0.5,1,0],[0.25,1,0],[0,0.75,0],[0,0.5,0],[0,0.25,0]];" parent="1" vertex="1">
            <mxGeometry x="540" y="630" width="240" height="120" as="geometry" />
          </mxCell>
        </object>
        <mxCell id="91iZdlQBrzUNIYWVd6zU-26" value="" style="endArrow=classic;html=1;rounded=0;entryX=0.329;entryY=1.008;entryDx=0;entryDy=0;entryPerimeter=0;fillColor=#dae8fc;strokeColor=#6c8ebf;strokeWidth=2;" parent="1" target="91iZdlQBrzUNIYWVd6zU-3" edge="1">
          <mxGeometry width="50" height="50" relative="1" as="geometry">
            <mxPoint x="370" y="600" as="sourcePoint" />
            <mxPoint x="480" y="500" as="targetPoint" />
          </mxGeometry>
        </mxCell>
        <mxCell id="91iZdlQBrzUNIYWVd6zU-27" value="Federar&amp;nbsp;&lt;div&gt;Autenticação&lt;/div&gt;" style="edgeLabel;html=1;align=center;verticalAlign=middle;resizable=0;points=[];" parent="91iZdlQBrzUNIYWVd6zU-26" vertex="1" connectable="0">
          <mxGeometry x="0.0334" y="1" relative="1" as="geometry">
            <mxPoint as="offset" />
          </mxGeometry>
        </mxCell>
        <mxCell id="91iZdlQBrzUNIYWVd6zU-30" value="ssoToken&lt;div&gt;companyID&lt;/div&gt;&lt;div style=&quot;&quot;&gt;redirect&lt;/div&gt;" style="rounded=1;whiteSpace=wrap;html=1;align=left;fillColor=#f5f5f5;fontColor=#333333;strokeColor=#666666;" parent="1" vertex="1">
          <mxGeometry x="713" y="525" width="100" height="60" as="geometry" />
        </mxCell>
        <mxCell id="91iZdlQBrzUNIYWVd6zU-35" value="" style="shape=image;verticalLabelPosition=bottom;labelBackgroundColor=default;verticalAlign=top;aspect=fixed;imageAspect=0;image=data:image/png,iVBORw0KGgoAAAANSUhEUgAAAJ0AAACUCAMAAAC+99ssAAAAY1BMVEX///9gp0phqExhp0tgp0tiqE2ny55Xoz5ZpEGTwIbk8OG0061cpUX8/fxQoDRLni3a6dfJ3sS917XB2bqdxZHx9vBurlv3+vZ+tnDU5dDq8uiNvX+Iu3ppq1R6tGlyr2BDmyFgkvLSAAANx0lEQVR4nO1ciXLiuBZFVxISQYjVbGH7/68c3U020/NmoGwnVa9QdwfHGHx89009mXzWZ33WZ33WZ33WZ/0fr8XicGgOi8Vv4/hjLVab6exyOZZ1+d5N1+ffBlRXs5r6nEOISVYMOefL5nz4bWSTyWl6zyEZbwxYW3648grGmJjTbPvLJDwdLUEroEzB5vGHwVcof2LaT3+PfovVbVmgFVIVTPLTeIcQXUGLp0KYNr8D7rxL0QCRCimFPCVMeMYVjMRsE27b3wC3NpG4aAoQWQ55Sv88HiM4Y1L4/nHyNbvMdKvEI75COSw0NM4ySjwL4br+YXDHACxZvMB5IhwIqkI6wBdUY+ti3PwkuNM+OmIksZAgFYB0ypffyk9+T/hsTNj9nPKeUnRQdBQKAwEcEDY+pGPA3/mQ/4HJs59ycKtrJKYRzYSGVg4sWxZAtSW+F/uCauPC7mfgnRKbDRQpX9jpxQh7PEUmuSiJJ5ErttAiDQv/3c9Q74yUqxwrlDFMOkun8I8XbZZT+NdbB3k6PrjDEcEhtxw8Sz7ZuJTIAAKIR5NDYnsY3S4vdkFujdaM7TCQXYs5x+v1akMO0TJg9B3A2oy6k8xpZHTbQKyySD4A4h7iiMvrbHM6rb6+Vqf19JhzMhoOWFOJG+/jil6TiVZd34XW7Do7Pd232dwS+zk2fBITFLM3JrjFd2RusVY4ek1m92cct9gegzAdmMX0SxyTt6fkjYYhbDyMDfvVP157mJfwCk2OI/dB9gbi93g+43CLFCgRb1H0jE3xfzPr6570Uerz5PH0dp3ZjBCbyIO5vPkXQT9jrAAiCfwa96Ohu6cKjV9T/vfg43APXiN5pHqxf8uxJO8UiDuofJJDpP+KjJpjck7Um1/TcSR0OxUj8av2Bc/+RSEWqo+zQvd/VqK+63xLYlZR6Mrt4v2FT61zNYueDsJ8FHTraDreCUPel6gwCxwQqM9Il1HSjGlQl0RRkXkxYlt5FAjnxSQX4/01ArjFPbFnl6DSXF+8yzSClwiV0rU8Rg5ELpYiE65JxO8XP7hK7PYoah7L2a4y5VolNuG89XUS7JP3GrKUv2kMgzzPYootxyj55U9ucvsx+9YnX187ijkkIC7CfXv5kyt2gKgVHsPB5QhKe4maf3FM93qW0Pg2FsQcI49gj49YCaNAiKT7Dc073GqsQiuP4GprCMDe4g0CHC6R5c5SajtGFFXMHVYhgGS76OAb6Eqm5CWqoRx4DHT7ROmplVjjPXRSq+KfYfiaT0EnxSUyyO+I9mIXka2AJAfrx0HH5QmNjd+lXU3jSiYyCu1A+YMv76LrhNTj0M6YDgneRAdYnGKJdSPJHfpYque4d3VWdYJKQCOhowId1dMLAd7SChCJJYM0GmddrTe9yVlH8Q3mmCNphWamlqO09zhrvdEa/UictdWX2/d1trrZ0ThrOzr7Hu2slFIo2xxLZ8s9KK8o5uFNP8tpGcqEG01n2zjtTc5SfR5zHzean/Us1Z5aOO/5WfGBXO4ZlXYkPO9FAUGryGP52YnEKKoX74TfO8nTqS3qBubseb2Zz+dXVFnnSCXKzdJu/vIqQT8Rjg2ejbPyfdvVMBXu6T2FsqQuxp3OsmJ4eSVpa+ALEg8/Gv1xgOSnuWaNuavQkV1oA7b/Wm3nxVjTpnXpMe9LvuYYoe0SA7WU2trni4tbZdi1ohoHPSxazd4CqIGjoc6O66S03gLmzgDOFydKh+gI8CdQfuTxE/geiavrhsf1K/uVo84ZpE/HUmeZo9a8RTy6nFujCtFRGTDMeqHDEohjqvBtPE91cBhJFsI7GgYoN6+tO2kZUA+vhE1OHsa3aL3j5nfohQ4jsw6ZwErfqyUnx2xOby1FCQJq9TqQ8QpoVYk/4PqVVGaxndBhfZDukty2jch50ggqI+vl1kLt5xIuq8Qs37rsJXiz6IRU8nXFnVsKhlxLLNu+KAmrUiNZa+DFZTxn2xC7Lzov7HTO10kdnQfQ0QCZgwKBzE1RIE0Gnj1CjPqchM5y57Evuk6NAYt3zKpCPstTCWC0365RPQ+h6GfqG2TBudDBv9Gf/rRTtjypnf7OPHY8guJEcwSa5yEfcKpEVXuo3YGmvT/taIDD8mSE1ldR5GtHyohet9DZYFQxwD44WR3W5/bC3rST6SYmhnNtsaKrx/y20IUEkC60XpsvT27CO/FrQ3AWusooOFpuOx42ckRU8iReJy2oNlFLuZ56jETGFmZv2unIEJk5a6zik7AAzZl3tqqOo1KGej8vwynczdWPWS6rDKMVVg0GWxI2WvT9VqwgAkJ/L4mh8xIIGua+l7FGsjAae9GD9pe7jpErCICHjPTW5EmtU6cmDopvb4EfxtJVRu0dSx5pUm9rLBpJnHDCS+Kzc9AxdQhN2FdEweM1PKklIC1/mIWuHUEagnaiBE4nUXzVWSdDeHzoVFFcFQFftULHLcmGW56+7E87/n4q5ldFRXeBDoPvXzCnxOIHVlhM8ahhNXYokR79swT8XqVlANpZh3GubYmYwvLxeCxzpNFnRJPv3yk6HZt4PAKhJCj5sUSSh8cjsl47CgRFxwfQ2bZxTivep6vm0Jy3F3bqzof5YnE+cq3AxO9FM80ShSRYH1aA+WVzniW2MC2vB7B3ND1XCQcmthMop8jDRhnPbCJJIxdFvyPZM5u2woD1ZLLlfhRIMEHzNoNoRRt0QOahA0boUdwctxtX4gMI3YpFKx1xsAgzJ0JHMX+beg4id+KayEn4eCn3+zqmZTgWnmWyE9JZuiWMkDwX9nYRJwi5X1fRidyRuvD39UWHfKi+H2heo7liGhnDjTxFudfXZNHQVAMo7SbniI/CkzEVHUjvvU4r9UYnowbiwHwsdFpLNSrxfXCE41zy5q8HBsJaFEVI9dAL7ahc30YVtj9nPQV1LP5FksptvhLBpQAZizaFnOtrEcVrQo+KkA7UMsaRENxH09Ku1S72bwPkFehFyaLi99IkznQZecCNzBoU4Zo/iLUFLCC6dfltHnw5OjWIzgntQCNCx165t86SO602ypFWTE63FBNvqjDpfpgcLjhMdoqqs5tpkTy/w8Zx86QVNQqVOGUYnWVpxlBPLMpqug/EIYvjJV8Jp1POqLWMLpW7zhucgnpGp6EUTd34ASyK1yaSqEKUgYDzLKN3gGVBs83pfp4sZlHQbR9zNonXSOisoONATwhoh4gCdAuA0X0e4XvFw5tr1OeUFjhv4RH0NuJmFEKbqQSxWZpn2knkpwWX3pwFrUNorO5MCN9buvk2A88NBZ4AaaLI3TbT6fM9MTpQdEDZHMWL5NT62zt2PpZrAfz0Md6Iv/tkQjk4LVOKtwPPXTA641HyCuonnWXNMo5yXzeAvQOJu6uscESZlqgd5fZF3ibz4+VyOTaEStDZOGtOONv2N3SaBFhOLAaJUYwW4EB2U2D5qNz3lOPTvoRzwcHooEQAtA2jK3dO6xVGI5UhYhRKZyjOLVoQpaW0XOOE0/OOHdxAwOgcOTpFJ57Mq58w0ukdhHZdg3KZWrKqgKO565wKY9czXuQgKu2wHubN33TWaM7L7Ogf32kxkZ94f56sI4YoAS3JPN+LXZtl6kpgIHUCQVedQgddkF2YdQta/3wWpM7O4peOBdP5e3/dz3Dy/oq60XieFsCZ8sNRtcIAJ9wtuvVRlue0EYbwZJ6LJBqTkSU58O7TeQ4F42rpKctNtzNGnZWzzMUWXV1oaDg/7s1Z2mXHG8RQoJNvx4XnyaSmM0sLZOLCF1sWw5tmDoj4GZ1iH6BurKWHmkllMz2dz1+rTcq4jWcuoUdhY7ysd8nE/XbD3QLaJXhcT0u4FW/bta7tPTmO3PvbO6mjc9+ct+cEjE5CxjTCpJzVC5fAOSMZ5RTurClX0zm6rq5Oo7d/zb2Tf5oODcUlaV3Ht4VXPKdxCPBuVboEVcc5S7E2F+V757NexFv2KnJd03HkQjUneYPdHEX3Xjt+WnVxmtYRN+U5YQjacb2B7TGXNp00gnGOkYr9nDyDlIq5kmZkty+ddR2CCzbeEjRIpcJIldV05u/Adu/G1GJyeb1GixKUiHGWo1vQxKf1tndcZaVET/oTlOy0lTKmmRS0Ne+1VmyQldStW8wVqRjC3tWqjHbc67O3iuIZNP3FepXnRMkCS5mvgunpGa1UlQewd1pgJ9sKQjff7uPtFOO9FBMtM9OLQjjVCiuai7S01JIaojJrlCntYbfEWnVWuktOC+xcr0WRw2qH9hZRuXjvLwziK2QoUmnHHQpSBa9E0VYTqE2U8iaHhV47BDV8FXoPUyEztc35pLauJSn4CkhEjSa6xAeqjRYR0OHevrTjGSG8jSgFaJdLd7frvm0jBQixzhrq03+7AGpBOvJBsuv79bY3WWrT2n5S11GV1hEiqO9ZNczac/K+CwhsNXb4b9kHXElj6qCLapps7AEpEKCF0IYiCpW37SZR2x1kqAeWKh5UuO05UzHB/1KBe05sL6ibzQbfilYwtdCWeUfFeWpoWxoVsU+WEYBzzpr9vDEA+c/EO0aZ8VDxZiPS5t56+6qKTodq2v+PhM2k+Gd5zw0xAHq+ZRV+Yga0vWtqOopjQj9gmV7anaJIoPZ6QH0hlbLwqpgH2JXX7EKOIdDIWOwMjv0xQyZXRLoqdi6Jkc+2F+BbeT/MvrLDdjr8mo+xI++zPuuzPuuzPuuzPuuzyvoLJKKO3om7VQkAAAAASUVORK5CYII=;" parent="1" vertex="1">
          <mxGeometry x="720" y="440" width="77" height="72.59" as="geometry" />
        </mxCell>
        <object placeholders="1" c4Name="CMS" c4Type="Software System" c4Description="Description of software system." label="&lt;font style=&quot;font-size: 16px&quot;&gt;&lt;b&gt;%c4Name%&lt;/b&gt;&lt;/font&gt;&lt;div&gt;[%c4Type%]&lt;/div&gt;&lt;br&gt;&lt;div&gt;&lt;font style=&quot;font-size: 11px&quot;&gt;&lt;font color=&quot;#cccccc&quot;&gt;%c4Description%&lt;/font&gt;&lt;/div&gt;" id="3JGElDcV1iSpHYIPzPLr-1">
          <mxCell style="rounded=1;whiteSpace=wrap;html=1;labelBackgroundColor=none;fillColor=#1061B0;fontColor=#ffffff;align=center;arcSize=10;strokeColor=#0D5091;metaEdit=1;resizable=0;points=[[0.25,0,0],[0.5,0,0],[0.75,0,0],[1,0.25,0],[1,0.5,0],[1,0.75,0],[0.75,1,0],[0.5,1,0],[0.25,1,0],[0,0.75,0],[0,0.5,0],[0,0.25,0]];" parent="1" vertex="1">
            <mxGeometry x="600" y="-70" width="240" height="120" as="geometry" />
          </mxCell>
        </object>
        <object placeholders="1" c4Name="Billing" c4Type="Software System" c4Description="Description of software system." label="&lt;font style=&quot;font-size: 16px&quot;&gt;&lt;b&gt;%c4Name%&lt;/b&gt;&lt;/font&gt;&lt;div&gt;[%c4Type%]&lt;/div&gt;&lt;br&gt;&lt;div&gt;&lt;font style=&quot;font-size: 11px&quot;&gt;&lt;font color=&quot;#cccccc&quot;&gt;%c4Description%&lt;/font&gt;&lt;/div&gt;" id="RB3AldZtHk3Kw9RAO3Kz-1">
          <mxCell style="rounded=1;whiteSpace=wrap;html=1;labelBackgroundColor=none;fillColor=#1061B0;fontColor=#ffffff;align=center;arcSize=10;strokeColor=#0D5091;metaEdit=1;resizable=0;points=[[0.25,0,0],[0.5,0,0],[0.75,0,0],[1,0.25,0],[1,0.5,0],[1,0.75,0],[0.75,1,0],[0.5,1,0],[0.25,1,0],[0,0.75,0],[0,0.5,0],[0,0.25,0]];" parent="1" vertex="1">
            <mxGeometry x="860" y="-70" width="240" height="120" as="geometry" />
          </mxCell>
        </object>
        <object placeholders="1" c4Name="Gerenciador Acessos" c4Type="Software System" c4Description="Description of software system." label="&lt;font style=&quot;font-size: 16px&quot;&gt;&lt;b&gt;%c4Name%&lt;/b&gt;&lt;/font&gt;&lt;div&gt;[%c4Type%]&lt;/div&gt;&lt;br&gt;&lt;div&gt;&lt;font style=&quot;font-size: 11px&quot;&gt;&lt;font color=&quot;#cccccc&quot;&gt;%c4Description%&lt;/font&gt;&lt;/div&gt;" id="RjAX30JPSa3u3ajhkDHh-1">
          <mxCell style="rounded=1;whiteSpace=wrap;html=1;labelBackgroundColor=none;fillColor=#1061B0;fontColor=#ffffff;align=center;arcSize=10;strokeColor=#0D5091;metaEdit=1;resizable=0;points=[[0.25,0,0],[0.5,0,0],[0.75,0,0],[1,0.25,0],[1,0.5,0],[1,0.75,0],[0.75,1,0],[0.5,1,0],[0.25,1,0],[0,0.75,0],[0,0.5,0],[0,0.25,0]];" parent="1" vertex="1">
            <mxGeometry x="1320" y="-30" width="240" height="120" as="geometry" />
          </mxCell>
        </object>
        <object placeholders="1" c4Name="Gerenciador de Treinamentos" c4Type="Software System" c4Description="Gerenciador de conteudo de treinamento" label="&lt;font style=&quot;font-size: 16px&quot;&gt;&lt;b&gt;%c4Name%&lt;/b&gt;&lt;/font&gt;&lt;div&gt;[%c4Type%]&lt;/div&gt;&lt;br&gt;&lt;div&gt;&lt;font style=&quot;font-size: 11px&quot;&gt;&lt;font color=&quot;#cccccc&quot;&gt;%c4Description%&lt;/font&gt;&lt;/div&gt;" id="6zTDfb_OJNSzWSM5GaU4-1">
          <mxCell style="rounded=1;whiteSpace=wrap;html=1;labelBackgroundColor=none;fillColor=#8C8496;fontColor=#ffffff;align=center;arcSize=10;strokeColor=#736782;metaEdit=1;resizable=0;points=[[0.25,0,0],[0.5,0,0],[0.75,0,0],[1,0.25,0],[1,0.5,0],[1,0.75,0],[0.75,1,0],[0.5,1,0],[0.25,1,0],[0,0.75,0],[0,0.5,0],[0,0.25,0]];" parent="1" vertex="1">
            <mxGeometry x="797" y="630" width="240" height="120" as="geometry" />
          </mxCell>
        </object>
        <object placeholders="1" c4Name="Back-end" c4Type="SystemScopeBoundary" c4Application="Software System" label="&lt;font style=&quot;font-size: 16px&quot;&gt;&lt;b&gt;&lt;div style=&quot;text-align: left&quot;&gt;%c4Name%&lt;/div&gt;&lt;/b&gt;&lt;/font&gt;&lt;div style=&quot;text-align: left&quot;&gt;[%c4Application%]&lt;/div&gt;" id="6zTDfb_OJNSzWSM5GaU4-2">
          <mxCell style="rounded=1;fontSize=11;whiteSpace=wrap;html=1;dashed=1;arcSize=20;fillColor=none;strokeColor=#666666;fontColor=#333333;labelBackgroundColor=none;align=left;verticalAlign=bottom;labelBorderColor=none;spacingTop=0;spacing=10;dashPattern=8 4;metaEdit=1;rotatable=0;perimeter=rectanglePerimeter;noLabel=0;labelPadding=0;allowArrows=0;connectable=0;expand=0;recursiveResize=0;editable=1;pointerEvents=0;absoluteArcSize=1;points=[[0.25,0,0],[0.5,0,0],[0.75,0,0],[1,0.25,0],[1,0.5,0],[1,0.75,0],[0.75,1,0],[0.5,1,0],[0.25,1,0],[0,0.75,0],[0,0.5,0],[0,0.25,0]];" parent="1" vertex="1">
            <mxGeometry x="1160" y="-230" width="570" height="380" as="geometry" />
          </mxCell>
        </object>
        <mxCell id="6zTDfb_OJNSzWSM5GaU4-3" style="edgeStyle=orthogonalEdgeStyle;rounded=0;orthogonalLoop=1;jettySize=auto;html=1;entryX=0.706;entryY=-0.019;entryDx=0;entryDy=0;entryPerimeter=0;fillColor=#f8cecc;strokeColor=#b85450;strokeWidth=3;" parent="1" source="RB3AldZtHk3Kw9RAO3Kz-1" target="91iZdlQBrzUNIYWVd6zU-3" edge="1">
          <mxGeometry relative="1" as="geometry">
            <Array as="points">
              <mxPoint x="980" y="180" />
              <mxPoint x="742" y="180" />
            </Array>
          </mxGeometry>
        </mxCell>
        <mxCell id="6zTDfb_OJNSzWSM5GaU4-4" value="Bloquear&amp;nbsp;&lt;div&gt;Contas&lt;/div&gt;" style="edgeLabel;html=1;align=center;verticalAlign=middle;resizable=0;points=[];" parent="6zTDfb_OJNSzWSM5GaU4-3" vertex="1" connectable="0">
          <mxGeometry x="0.3507" y="2" relative="1" as="geometry">
            <mxPoint as="offset" />
          </mxGeometry>
        </mxCell>
        <mxCell id="6zTDfb_OJNSzWSM5GaU4-5" style="edgeStyle=orthogonalEdgeStyle;rounded=0;orthogonalLoop=1;jettySize=auto;html=1;entryX=1;entryY=0.25;entryDx=0;entryDy=0;entryPerimeter=0;fillColor=#fff2cc;strokeColor=#d6b656;strokeWidth=3;" parent="1" source="RjAX30JPSa3u3ajhkDHh-1" target="91iZdlQBrzUNIYWVd6zU-3" edge="1">
          <mxGeometry relative="1" as="geometry">
            <Array as="points">
              <mxPoint x="1440" y="190" />
              <mxPoint x="1066" y="190" />
              <mxPoint x="1066" y="320" />
            </Array>
          </mxGeometry>
        </mxCell>
        <mxCell id="6zTDfb_OJNSzWSM5GaU4-6" value="Gerar/Validar&amp;nbsp;&lt;div&gt;Tokens&lt;/div&gt;" style="edgeLabel;html=1;align=center;verticalAlign=middle;resizable=0;points=[];" parent="6zTDfb_OJNSzWSM5GaU4-5" vertex="1" connectable="0">
          <mxGeometry x="0.2546" y="4" relative="1" as="geometry">
            <mxPoint as="offset" />
          </mxGeometry>
        </mxCell>
        <mxCell id="6zTDfb_OJNSzWSM5GaU4-7" style="edgeStyle=orthogonalEdgeStyle;rounded=0;orthogonalLoop=1;jettySize=auto;html=1;entryX=0.5;entryY=0;entryDx=0;entryDy=0;entryPerimeter=0;strokeWidth=3;fillColor=#e1d5e7;strokeColor=#9673a6;" parent="1" source="91iZdlQBrzUNIYWVd6zU-9" target="91iZdlQBrzUNIYWVd6zU-14" edge="1">
          <mxGeometry relative="1" as="geometry">
            <Array as="points">
              <mxPoint x="460" y="-300" />
              <mxPoint x="1300" y="-300" />
            </Array>
          </mxGeometry>
        </mxCell>
        <mxCell id="6zTDfb_OJNSzWSM5GaU4-8" style="edgeStyle=orthogonalEdgeStyle;rounded=0;orthogonalLoop=1;jettySize=auto;html=1;entryX=0.5;entryY=0;entryDx=0;entryDy=0;entryPerimeter=0;fillColor=#e1d5e7;strokeColor=#9673a6;strokeWidth=3;" parent="1" source="91iZdlQBrzUNIYWVd6zU-15" target="91iZdlQBrzUNIYWVd6zU-14" edge="1">
          <mxGeometry relative="1" as="geometry">
            <Array as="points">
              <mxPoint x="720" y="-300" />
              <mxPoint x="1300" y="-300" />
            </Array>
          </mxGeometry>
        </mxCell>
        <mxCell id="6zTDfb_OJNSzWSM5GaU4-9" style="edgeStyle=orthogonalEdgeStyle;rounded=0;orthogonalLoop=1;jettySize=auto;html=1;entryX=0.5;entryY=0;entryDx=0;entryDy=0;entryPerimeter=0;fillColor=#e1d5e7;strokeColor=#9673a6;strokeWidth=3;" parent="1" source="91iZdlQBrzUNIYWVd6zU-10" target="91iZdlQBrzUNIYWVd6zU-14" edge="1">
          <mxGeometry relative="1" as="geometry">
            <Array as="points">
              <mxPoint x="980" y="-300" />
              <mxPoint x="1300" y="-300" />
            </Array>
          </mxGeometry>
        </mxCell>
        <mxCell id="6zTDfb_OJNSzWSM5GaU4-11" style="edgeStyle=orthogonalEdgeStyle;rounded=0;orthogonalLoop=1;jettySize=auto;html=1;entryX=0.5;entryY=0;entryDx=0;entryDy=0;entryPerimeter=0;fillColor=#e1d5e7;strokeColor=#9673a6;strokeWidth=3;" parent="1" source="91iZdlQBrzUNIYWVd6zU-11" target="91iZdlQBrzUNIYWVd6zU-14" edge="1">
          <mxGeometry relative="1" as="geometry">
            <Array as="points">
              <mxPoint x="240" y="-10" />
              <mxPoint x="240" y="-300" />
              <mxPoint x="1300" y="-300" />
            </Array>
          </mxGeometry>
        </mxCell>
        <mxCell id="6zTDfb_OJNSzWSM5GaU4-13" style="edgeStyle=orthogonalEdgeStyle;rounded=0;orthogonalLoop=1;jettySize=auto;html=1;" parent="1" source="6zTDfb_OJNSzWSM5GaU4-12" target="91iZdlQBrzUNIYWVd6zU-12" edge="1">
          <mxGeometry relative="1" as="geometry" />
        </mxCell>
        <object placeholders="1" c4Name="Parceiros" c4Type="Person" c4Description="Usuários Sistemicos&#xa; (B2B)" label="&lt;font style=&quot;font-size: 16px&quot;&gt;&lt;b&gt;%c4Name%&lt;/b&gt;&lt;/font&gt;&lt;div&gt;[%c4Type%]&lt;/div&gt;&lt;br&gt;&lt;div&gt;&lt;font style=&quot;font-size: 11px&quot;&gt;&lt;font color=&quot;#cccccc&quot;&gt;%c4Description%&lt;/font&gt;&lt;/div&gt;" id="6zTDfb_OJNSzWSM5GaU4-12">
          <mxCell style="html=1;fontSize=11;dashed=0;whiteSpace=wrap;fillColor=#6C6477;strokeColor=#4D4D4D;fontColor=#ffffff;shape=mxgraph.c4.person2;align=center;metaEdit=1;points=[[0.5,0,0],[1,0.5,0],[1,0.75,0],[0.75,1,0],[0.5,1,0],[0.25,1,0],[0,0.75,0],[0,0.5,0]];resizable=0;" parent="1" vertex="1">
            <mxGeometry x="1840" y="-220" width="200" height="180" as="geometry" />
          </mxCell>
        </object>
        <mxCell id="6zTDfb_OJNSzWSM5GaU4-15" style="edgeStyle=orthogonalEdgeStyle;rounded=0;orthogonalLoop=1;jettySize=auto;html=1;entryX=1;entryY=0.5;entryDx=0;entryDy=0;entryPerimeter=0;fillColor=#d5e8d4;strokeColor=#82b366;strokeWidth=2;" parent="1" source="91iZdlQBrzUNIYWVd6zU-12" target="91iZdlQBrzUNIYWVd6zU-3" edge="1">
          <mxGeometry relative="1" as="geometry">
            <Array as="points">
              <mxPoint x="1610" y="350" />
            </Array>
          </mxGeometry>
        </mxCell>
        <mxCell id="6zTDfb_OJNSzWSM5GaU4-16" value="Autenticado&amp;nbsp;&lt;div&gt;&amp;amp; Autorizado&lt;/div&gt;" style="edgeLabel;html=1;align=center;verticalAlign=middle;resizable=0;points=[];" parent="6zTDfb_OJNSzWSM5GaU4-15" vertex="1" connectable="0">
          <mxGeometry x="0.4063" relative="1" as="geometry">
            <mxPoint as="offset" />
          </mxGeometry>
        </mxCell>
        <mxCell id="6zTDfb_OJNSzWSM5GaU4-17" style="edgeStyle=orthogonalEdgeStyle;rounded=0;orthogonalLoop=1;jettySize=auto;html=1;entryX=0;entryY=0.5;entryDx=0;entryDy=0;entryPerimeter=0;fillColor=#e1d5e7;strokeColor=#9673a6;strokeWidth=3;" parent="1" source="91iZdlQBrzUNIYWVd6zU-14" target="RjAX30JPSa3u3ajhkDHh-1" edge="1">
          <mxGeometry relative="1" as="geometry">
            <Array as="points">
              <mxPoint x="1240" y="30" />
            </Array>
          </mxGeometry>
        </mxCell>
        <mxCell id="6zTDfb_OJNSzWSM5GaU4-18" style="edgeStyle=orthogonalEdgeStyle;rounded=0;orthogonalLoop=1;jettySize=auto;html=1;entryX=0;entryY=0.5;entryDx=0;entryDy=0;entryPerimeter=0;" parent="1" source="91iZdlQBrzUNIYWVd6zU-3" target="91iZdlQBrzUNIYWVd6zU-4" edge="1">
          <mxGeometry relative="1" as="geometry" />
        </mxCell>
        <mxCell id="6zTDfb_OJNSzWSM5GaU4-19" value="" style="shape=image;verticalLabelPosition=bottom;labelBackgroundColor=default;verticalAlign=top;aspect=fixed;imageAspect=0;image=data:image/png,iVBORw0KGgoAAAANSUhEUgAAAQIAAABVCAYAAACis+qrAAAABHNCSVQICAgIfAhkiAAAABl0RVh0U29mdHdhcmUAZ25vbWUtc2NyZWVuc2hvdO8Dvz4AAAAmdEVYdENyZWF0aW9uIFRpbWUAZG9tIDA2IGFiciAyMDI1IDEwOjU0OjM2Tv8epQAAIABJREFUeJztnXu8HFWV779rV3X3eZ/k5CEgQUBeIgkSuPIIoCIJCARRPzjqXEZFGRVRcAZ0HL2iDqioyIAwXgcQBESvrxHI8NDRoCRRXmaIIBAGTALyyvu8+nR31V73j127urrPI32Sc0IC/ftw6E531d67qmutvdZvrb22qKrSRBNNvKJhXuoBNNFEEy89moqgiSaa2HkUgXdgVGvfN9FEE9sOaXIETTTRRNMiaKKJJnYeRdBEE01MHsLt3aH3RESEkbwSEdneQwIy4wL8qLJjfKnG1UQT2wPb1SKoVwIqVQETkVGVgzu3+jrRroGqVvv3Y9Hq59mxN9HEyxHbTRFkhS1O3hsV+tVWFUNG8OrhPxapfT8RqO9f+4dQkyiG2G5RSTXRxM6OSVcENQKmSsVaAoSSWj41tJnjBtbTay0K2OTY7Slwvj+1CgraWyQ67mLseTegpQgCg1bimmtoKoQmXm6YVEWQtQKsKhYlZwx/thVOGNzAv1b6uT8ucV6pFwNoImgjzb6T4Rpk+xJVMEJ8/g/Q+1dgL7+FaMFX0EeegVwA1qK2aR008fLEpOQRpE2KgCoxCSspwvfLg/zj0GbWYwmc+BOjXNcyhQ/k24msJcgIW9VHT5vLNj2qe7DF45N/qCrEFgkD4puWYs+4DMIWBINGAzCtB3PpGZj3H+vOi2IIzDBSsYkmdmZMuCLQRMAkeR+pswI2Wss/DvVyXWUARDCJlSCJhHaLsLR1OgcGIbEqJlEGkwV1g0WtxQQB9vHniOd9ATb0IRKiVpEgQOMyECFnLiD45t/C1Ha0EiOhScYOyujcRhNN7AyYnMxCVWzy1oiwJCpxztBmHooriBFQQalO2SKCWssRQZ7F7dPIIUjGGnDWwcRZBKqK4DgJUYXIEs//KnrPQ0jQlhKEqUUioHYAZu9DcNWHkWP2B2sBAeOUXhNN7MyYcI5AVbGqmKTxS0p9HD+wnodshUAEVUFFayRTVQmM4Q9xmc8N9REg2EwozxF0vv3GOILRjvcWiwJiFYIA++X/wN6zHDJKIFVQuL4l7IQ/rSKefxH2ktvAGDBOgTX5giZ2dky4RWCT2XaTKn83tJFFlaEaV8D5DG6WTeHsdMcYKPy8bSqn5VpTvqDGcthWiyDx7G1sMWGAvfMh4lO+BhjEjtBYRlmJMaiNUUqYk48guOFsmNrmxmaaSZpN7LyY+KdXFQXyQF8ihUGqBGS4EoD03yrOWvj40GZWx1F6npBNPNqWPIJEqK0igcE+u5H4o9dCHCNqRp7Zs+6JtUgYIgj0DaGFML3eJprYmTHhisCb8u3G8IOWKexqAmJrnfCogowgNs4HQFUxYnjWxnxsaLPjGRJlkMb7tzZ8qOq4iSRfAAX78evR1c8gQUsaGhz9dEWMoFEJdpuJ+cHHMe2FxGBosgRN7NyYFEVgRIis5dVByL+1dLvP/bypIwiNCzGkQm+M4Y5oiEtK/c4qwK8DEER0KywCRUWcErIWCQ3223dhf7EECdrROE55gTEuDBU3+5urPoTZvQcbxYiZ3OhGE01sD0wKWSgiBCJEqpyWa+VT+Q6sWmqj73XICKLFRRu+WO7jt5USoRhiVSeIKg1ZBPVkoSTZgxIG2PuexH72ZsQUEKtVT2UUgU75gXgQc95CzGmHolGMBKaZXNTEywKT5hq4tQRKrMpFLZ28MSg4ZZCdeesFKEMMqggVlA+XNvOijatkozuxgXH410z2oIBuLhKfdTVaLCIEaRRhGJK+VB2foPEg5o2zMRefjsS2uhZBmzkETez8mBSq2wuIF/o2MVzbOoUuMVXBS1/rTs6w9EYM/xOX+eRQkoKMpMk7XrBHH0N29aCCVTCG+IKb0RWP1/IC9QopGykQQW0EXV2Yqz+MtBUcpWGaSqCJlw8mtx6BCAaI1HJQkOPSQhdnDW3C4Mz/EeN/GQLAJsrg/0WDHFvOc3ahnShJAtrSbFyzZiG2EAbYm5dhr74TCdoRa8cOP3hlYIC4grn075E5e2RSjMdwc3YCDFsSPoJ7U7+uolGlt6UFWlvbbv3YR/t85PZk3FGmLd2j+n5G6ndHWKyWvd+jru6dzJqFafKOtVgRQhHOGNzITZVBjDGJqT9COLHagEtXVkubGO5pncYhYb5mPcKW+k9TiJ94jvioC2F9bzWFeCwFoC7F2Mb9mP89n+DGj0EUo0Ywxmc6Nq2B7YnhC9EUay3GGExdHkccuxWjxpia36n5m42McSuCrIZLkmyHpwVkbrZv3q8r2KiWeYPredxWEO8qbEEZ+Bj+IUGee9qm0ZZaCyMrA9dkQg4iEEXEJ1yCvXs5Jps9ONY1GoPaIWT/PQiWfBF62p3wm2peQe011lkIFjBsURO/VMjOduVymd7e3poxWmvp6uqiUChstUVgrWXz5s3EPiqTtNva2kpHR8e42s3eQ5tkcwZBkH4/NDREsVgEoKOjg1wul34XRRFBEIzbCske29vbS6lUShWOtZZ8Pk9XV1d6/FgWwUj3YnvAWkuhUKCrq2vM53BcrkG2IRHB/wyxv2FQc7M9JHERYlWmmYCrC90cX1xPJXUNdOREozq+YHlc4oJSL1e2dCefZ/uofZ+mLBiwX/o59u4HkaBji0qgmlocQyGPfPcsZHqnCxVmogTVvp2yUa1egxhIbw5bdmNeKlhrCYKApUuX8r73vS8VLBGhUqlw9dVXs3DhQuI4HjazjgV/rZs3b2bBggU888wzhGGIiFAsFjnjjDP41re+hc0s626kPXAzvR/nX/7yF2677TbuvvtuHnvsMfr6+gDo6enhwAMP5Pjj57Nw4SnMnDkzvV4vyI38HllFcNZZZ7F48WJaWloAKJVKHH744dxyyy1jtpe9FyeccAJPP/00YRhuFzfBGMPQ0BDz58/nBz/4Qfp7j4RxKQJfV0CAtRVl2aaIY6aETMtXzbJYk1g7VblOQ4qqRNZyTK7AhXEnnyttxmCSxCGGcwbZWVdAMFxfKfKZQgevMQF2lFV/qsn/AgPr+rBX341I3i0w2gIUwAjEReQLH8S86QDU8wKpkpPqwcnaCWcpuPajTTD4J2g7CIIp7vMdTQlkfdZiscjzzz8/7Jj+/v702PGMP7UCreXpp5/mhRdeqPl+7dq16XH1Jv1Ibfn7HscxYRiyfv16LrnkEr73ve+xfv36Yec888wzrFixgh/96EfMmjWLc845h/POO498Pl+j1LZ0XdnvnnvuuXTcHs8++2xDXJW/F2vWrBl2L7YH/G87lvJpWBFosh4gViUU4fa1FT64vMisTsObpgYsnJnj2KkhuxSqzoJN3AfjG0hCipEqnyl0cI8tc2eliDFBNQV5JGSsjFCEirp8guq4ak9VBaNJuDGOkSBZ7LQFgfShQhsPYE48guAzp6S8gCTf+6xE6oS/sl4ZXK70LxUGlkPpf2D3S2DKSYpawOxYyiA7E9fP9saYmtljvOPOWo2FQiHtyxiTCnMj7XoeJqsE7rvvPj7wgQ/w6KOP1ozdWpuelyXHnn76aT7zmc9wxx13cN1117HnnnuO28IByOfz6TVA1TXwCnVUEm6Ue7E9LIIgCIjjmHw+XzOWkdCwIhBRrPV+Ofzn2ggR4emiclN/xE3PVJjZGvDmqQGnzAx509SAPVpNkkSUUQqJ3R4Yw3cL3RwRV3hOY8CMvooonRXcj+0Z+8zc7A9DfCqC/y5tL/mx7Bh9GEHjMrLrLpjvfsgphSh2/VlxPr/TaoBQeQEGlkP/PcLAfyuV5wRiwbQqEgr9y5SpJ7sxqCtcMG7mensh+2BOJMOdbWu87Yo4F8xaSxiGLFmyhNNOO43169cTBAHW2lQBZAXbKw7XhhAEAXfffTcnnngid9xxB3vttdcwxdHodWSvxW4hLb0entRsVBF4LmSkdhrp1xjTsDU3DovA+b8BwgulmN9ujNHAkWdGwIrwYsny479afvxsmZ4WwzFTAxbOCDmuJ2SvNpPJLBRK1rKHCbmypZt3FTdg0NqQYlbK0wvxZnby46mmfIA/zJ9u1Smd6m0cI1QISQqyUy/hVWcie0zHlmMkZzKnKOVnYeABoX+pMviQUHlRIFakIARtOGJCQQrK4HKorIPcdAULYupVVxOjwbtg1rrZe82aNbznPe9h/fr1qWUBVeslK9geXuA8Wfj444/zvve9j1/96le0tram528tfzMewtFay8aNG9NxbwtGutaR4Pvq7e2tGctIaEgReLfAJsTYb9bHrC1aJHSCFidSK0YwxtFnG8rKLc9G3PJsRHcLHNEdsnBGyPxpAft1BBQSkvCdYSvnhB1cWe5zYT7fYb0ySJGQhHXJiSO6CGNflf/PnRcYFyo8553IOw5DiJGE+yg9rQzcB31LlOLDQrTWnWhaIGjLJEh5zkDB5KDyPAz8EbrnA5Z0mcWOahXsSBABa6tk3fnnn89f//rXVPD9554VP+qoo9h3332J45iHH36Ye++9dxi/EAQBf/jDH7j00ku58MIL0xDj5F6H+7FbW1s555xz2LBhw5i8iLc6crkcDzzwAMuWLauxIIwxvPvd72bGjBlEUTRmW570nT17dnruaGhIEUgmFCdGuW1tBCqIJjNuapJBnKwurCoF2Bwpd70QcdcLER0FOLw74KQZORZMC3h9Z8C327pYIRV+Vy4RGoMVSQjErKRmY8E4dl7r3AHNKASGBfTwg9TkJqX7KgQGrfQTHH0QwbffDWoZekrov1fp/4NQfESI1wFGMHkh6PBmB0661VlMVevE7dlADP1LYcoCsMlvYJpaoCE4l8AJ75IlS/jpT386TAmoKgsWLOCrX/0qc+fOTc+11rJ48WIuuOACli9fnh7rTfkrrriCD33oQ+y+++41UYjJgBe+9vZ2LrroonGde/nll7Ns2bIaCygIAi6++GL23nvvrR7LSGjQInBCEyCsLccs3hBBQLIqMDNzC+m0p2SUggiShHX7I+XXa2N+/WJMa144pMvwrpk5/n5KB38OK6yzcSrpQSKs1jdInS+LI/jd52QEcdgFpMcjznJBBIkiVCtgy8i06ZT/4SwGflSgf3FM8XFDvNF1YAoQ+HCxTcKEGcIyaTZ9VXW+iRSEweVKtAmCbskooUbu+isbVQtPuO6664aFrlWV0047jR//+Mfkcrkak1tEeOtb38pdd93FSSedxAMPPJCeY4xhw4YN/OQnP+G8885LQ4qTReTW5N00YNJniVGfF1HP3/T29hLH8biUWBAEE5FH4N0CWLIx5vnULRih0Rr2zisFdceKOsEy7rCiVZatj1m2LqI1EI7co53j94VbSiUetBFRRikYSUxu7zLUd1WnADT7hYirLRgIVOKkIGkMYQfM3Yfg7bN5cdUbWX/ZHugmC4FJhD+xKSzOtE+vKXGFRg9yuONyUPmrMLgcOt+MIxwnb/J5mUEJw5D+/n5+97vfuU8yRN2MGTO46qqryOVyVCqVNBLhUS6XmTFjBldeeSXHHnss5XK55vtf/vKXfOpTn5pUa6AeWwqVQtU1GEs5edKxkfBro2hMEWiVA7jlxTq3AEbnv6TuTaIYrKfPRTChiwIUVfndKuWTU9v47K5dPFgp86u4xJ1xifvjCoNqQZXKCFmI2fuVEoZJr1YEYovaItgAWjqQ/3UAcuIc5IQ3YA7dg02/N6z7BzDWYrpNNURotcbk9y7Jlgg/7x6ICDZS+pZA11sE68nCHTh6sKPAC/2qVatYvXp1+pl3D971rnex2267pUqgnon3VsLhhx/OvHnzWLx4cSo8ACtXrqSvr4/Ozs5xs//jQdaKGc852fBufYp0/d94xzISGnMNRAgQNlUsv94Qg/HlucZ587KKIfnNbMZ9iIzy/j8P8vvODg7tyHNomOef6OAxG/FfUYlboxKP2kq6HNk9GP5mJWP17rtNhM4q2t2GHHgo5rTDkOMPQg6alQ5naJXy/OdiJBKkkJQxS9upzvrjf06S9Qh5GHhQiPqUoJNm9KBB+Jlx7dq1VCqVYd/PnTs3I/j1e2DUhivnzp3L4sWLa/INNmzYwMaNG2tSnV/JaEgRWCAU5b/WRzwzaAlDg6/4VaXepcrONfKM+2OSsKQmcfzNJctZjxT55WHthAIBygFBjgOCHOfkO1itETOS1dPeXahp1s/eXkFMaSf8r3+G10xPh6dWkchirfDcV4VoQ0DQqWgsSex6fCvVqkEOxx+IL8cmIK1C5Rll8EGh603+4Rz/SrhXGkZLvPH/LhQKmeNqH7p6hdDZ2Vnzb3CuQ6lUqjn+lYzGHIzENbhvswWrRGXFxu6mBon/Xp1GM0x/I/C/gSdzQsPSdRH/8uQQeeN4iDjJRlRRXmNC2hK/yM/Y2b+kKfcdIC055DXTk/0LYrck2YLkDWuvE/p/T6IESB+oRp6LbNhSpJrcJEZTBtMOCXGvYsvC0Ep3b5Ttk1X2ckG9kGaFvPp++Hn++y0l7zSVgENDFkGQ3MzP753npBkBt70Ycdf6mEf6Y+IomQ4DIUiW56ZVwTWjqRu63+ISgULh60+VOXpqyMkzctWy5tRWNd5ijncmpigiaGBQK5hQ6VsK664TpwRs9YHa0nOR9f81SW4imZU0FnQIbEUx7ULL/krb4dB5tNK6v7dUmkpgojHSM9DoZ004NJhH4ISuKye8uSfHm3tCLoqV+zfH3L424s71EQ/1WeJyVim4xCLnkWnqAozqOvjP1ZUpU6uc/eci9x4RsEtBiG2yaUodcTLWmJM3qbWhFkygVNbD89+ANDPRkroEIyGbrCSeLEysDo3BFhUiwXQoLa+HjiOUjqOg9QCXdFRtZ7gZ28TWYaJIsiYcGswjqG4uYpMc/9ZAOLYnx7E9Ob5sLQ9utvznuoi71kU82BsTl3HPe1CXDyBaTbGr9pCy8SJuyTKBsKbX8jcPDbJobjvtwbYt5fXkXzyo/PULUHxcyM1IfHqjCZOfXV6cVTiZjwQ0UmxJIFZMO7TNgfYjlc6joOUAMLnqCRongm+yymbHWoDURBPjWGuQpDhStRC8UsiL4ciphiOnhnzxtZY/9lpuXxdx59qIB/tiooq3FKhVCj4eT1KvANBYid1CAV7bbdi3zTAYK52B2wZtayEIGMUOQX4WtL5eKa8WbEkxeZc0hFEkSRZKTZSE4dcItAQ2cslFbYdAx5Hur2V/MG67Z5czESfWjygEkpoUTSXQxI6Khl2DLLJKwT/8PooQivDGKSFvnBLyf16rPNQbc8f6iP9c6yyFcjmpFShgEtdB1S1vxgiv7TCcOC3g5Bk5jpoS0J2r+u/bkp4rxs32YQ/s9k8Q98PgnxxXMHifUlrlyD3JKRRADUisMOiUUzgFWmdDx5FCx1FCy77VyIQCGuMEX5yF4cOrMox4aCqBJnY8bFXx0qxiGK4U3JJjTRqf2x0wtzvks3spf+qNuXNtxG3rIx4sWYaSlTgH5AzHd4ecMiPkqKkBnbnaQicGn9SzLa5BNTFIFYIO6DxS6TwSogEYeFjpW6pU7hfMagiGhEonyBuUlqOg6whoeS0YU01XdsKf/BnwJIjWRB6agt/Ejo9trmI8ulJIkvNi93kYwsHdIQd3h3xmH+WPKyx3/CbidfsYTnhzQHtH9awoduaFSZY4Q9Z331pk2hC3q7lNPICwHboPN3QfDgODlrvujnl0peVtx4XMnVNTa4kochO8Md5tyN4LaAp+EzsjtlkRjBijTVbkEYBL5VZsLBSfUPr+AMU/wNTHA97fGxAX4PkblPyhjmxrPxhyaT3IJLQn1UjgtsBzG0qiZJLPN5Rjlm6w3L424je9ESvbLcxVLtpkOOxew0nTQk6YHnJwV0AYZpSCemOgNoHF99VEEzsLtkoR+Fi6J/oUPPsHQTUxx0ZK8XHo/z30/14ZehxsrzuGFkVbQSzwFBQfh96fCPlZSvuhuPDbGyDX4wS36mpvnYCleQe4dl4sWe7ZFLHoxYjfbIhYM6jV6kXikqSGVFnSF7NkXcQXnhIO6Qp42/SAk6fnOKQrIJdxB5pKoYmdGeMoTFJFwn0nK/IUCUhX1cUlGHpM6V8KA/fB0BNK3GcwOUXyQtAN4LKONInj0yLQ6joqPyOUnoINP4f8q5XWg4VdzlPC6aBWklJh44dVl4fwfNly3mND3LMx5tmirZYgCwQTJOQl1SXWJnDqLlK4f0PM/etiLsqVObjTsGB6yMnTQw7rDmgNMq6NVqmDkTLbmoqhiR0N46hZmCiEZDmuBEloDIgHYejP0LcMBu6FoScFW3QZglKAsFur7oKtJu6kKaJWfY4OpuBYewyUnoSW/ZSgg6rS2VofXBUrQndo6I/h2T5LWDDYgHSxYZwlEdzigWrug4i7HiBWWL7ZsnxjmUueKvP6DqcU3jY95MgpAR1hLdkJtWHXHbG0eROvbDQYPsyY5n7m74Piw9CXzPyl1YIWFcklwt9FQtH7pAGvAIbn8leFQpNZX4kHoWU2vPpCl51nY5w1kE3zayQnONOHVaU1EG6Y3cqRA5aVfUldBa26BLUn+WG5NzVKIRAkcErhkT7LI5vLXLaqzH7thrcm4c95UwKm5CRtqKkAmthR0ZhrkGxpFG1w9fr7l7qltaU1QEmQPEhBMd0+PoebwWuKeIy9mMfVEBDcDkWCySu7fcYVB7GxW5kouJJp+PLiMrp9UFMZBrcOyCBEVunJGf79wBbmPzCY7MMg1YVSIzWY/WxYTQWcUgidUljZb1nZG/Od1RX2bDcc3xNw8swcR3YHzMxv/X5/k4Hsct2RPp/sfif62PGOYUcYx46Chjxut08grLtJWfVRZcOPobxGCQoQdCumJdntJynj5fYQ8CsDG1vN51bwuX7iAWXGR6B9LtjI7YEssatW5HcbAsbcsCRb1CEQR2rG7gMqVnnTtBwX7lvARpqGKBtePu0Zx8SnsChxQpZKIAQ5gwTCqgHLNasrvOPeAS5bXXYpzjoRodCJwZZq8U806ktujXXcaN9vi0CO1eZI342kKMc6bmdGQ4rAPxjthwphlxB0gik4QdBYUCvpjK7VibIh+PQc1cTU7hO63gLT3mPRstsfgMBAGKCxxf73arS3Wsstuxy49r37x6BaVsQVyuo2ZglFyAmUrHL+ngXmvyqHrdh0v4XMoBq4MclfZrs2VSVOUq8lEMI8SCgcMyXwN3OHsAagKgCjZY6O9u9G260XsPqKOyMd478fbXXpSMVHGhlPPUarAFR/Tr0FN1LezI7ye24LGiMLk8Uy7YcouVlQXi1I3s3+w/39xjv34TzEkY92UMntatn1swGmELgJt1SB5auJ73oIvfWP8Je1BPd+GelqxVUoqqUK/PvYKoEIm63lxMENzBBhYVjghLCFw0yOVnGFE695fSuH9cWsHdIkaqC1wu08my3cn7ob4M9Rlxy1Z7vb40GTyMWOsAIxK4C+SGaWzARX7ivrYjX6wHshC8MwrQlY399o5bbqBXBgYGDYuIGGdu/xGGlnpXK5TLFYTMdVv79B/ZgGBwdr+gfSjVZfDtxPg6XKAAumDdoPg6GVELa4FNtx8HU1JrF3G7xNYocs2mbY9auQn1oiXvwUesdy9M4/wcNrQJOHtWMqElQLk/j+s3yfe+8GFYgQi7IijlhhK1xcHuBAE/K2sMCJQYFjWwv88MA2TvnjIENWXU0FqkGOmtWS4/yt/TLlBdNydOWMq6sAKGZcCnMiMdIM98ADD1THm/n+Va96VXreeJf9qiodHR3MmDGD1atX17S9YsUKhoaGUkWTPa8+srJ8+XKgupGJP36XXXbZogD6dnbZZReAmlLoURTxyCOPMHv27GGVjH0fvpbhc889x+OPP5Z+55WGvz8vB0XQmGuA3/tP6DjardRTK6mrPBq8ie5fRRQxSehRFI2UuE+J+yxmimHm/ivpuPl6KnM+jz3uy+g3fgJ/etIR9bkO1LRk4phVC34k9yAdQzJ+I0IoBkT4s424tNTH/OIGDupbyy+nDnD0XkJPIMSRxVYcKWkgXeeQVmDyZOhYFmnGTSBQTp4R1EQmtvczkzXB/QPrS2Zv2rSJH/7wh9XxJpg5cyb77LMPIjLuct+qmu6deOCBBwJV5SAiPProoyxatIggCKhUKjVWgGq1nPfAwAA33XTTsLH19PSw3377bXFMftyzZ8+uKVzqz7v66qtT5eOVTFUJaLqByE033cTGjZvSisH+/De84Q2jujc7GxpMz/FEmtJ2sJLfHbSsvrz/cOFTPysn5aKMulLiItiyEvcK8QAEU6D7rcqrv2bY++yV9PzkX4i/+Qt4fA2CQcJOJCiACBrFiF8ckJKF1f6yfWfheUBLJqYvQmACQHhCI75e7OOB3fv59hF5vj+7jVN2DenJu8zIrFIIvBkrmlEM1CoFP0R1hVBe3Wo4empYXZf0ErkE/oH3u/v4yr+f+MQn+Mtf/pIKqn/Yjz76aGbOnEkcxzWzeaN9+eNPPPFEYLiffsEFF7By5cp0Y1C/bZnf51BEOPfcc1m5cuWwsR1xxBHstttuW6w+7M+bM2cOBxxwQI3QiwiLFy/m4osvTl2Y7BiCwFAoFPjtb3/LV77yFaBqUfj9BObPXzCie7MzomGyUHFhxLBTaDtU0TLphqB+klb8zE+1dp+4Ih5xrxIPKuF0oftkZfeLhb2uV2ZdClOPHyD48jXY3iEk142YvKtSFPuVQVnTNDHfqLVG/PsRfw+pPciqJhEE125oAjbFlm8GvZwxK+S2ue388ch2rj+4hdNfnWNmohTiikVjFyEJ/JgEandk8i8CFo6fFtKTM8SqSGIVbW9kze0gCDDG8NBDD3Haaadx0003jSjoH/jAB4CtI8S8FaGqnHTSSemuPNl+Vq1axfz58/npT39KqVQiCIL07+GHH+b000/n2muvHXFsZ575oVSgx1KsXvG1trZyxhln1FhE/v3nP/95zjnnHNasWVMzhs2bN/Od7/xfTj311HTvQKjuTXDMMcdw2GHDbBflAAANCklEQVSHpkplZ1cEDacYS0KgqSqd84SN/0G6DVp6g5MNTNSClgQtgeQgt7vSfgh0zIO2Q5TcdPBTpxIQn3Uz9r+fwASdaMUt70tDgyMyuk6DacK5pYqonq8YTeZS98LVUohwP/DySpkPDvZyfWs3r2k1vP/VBd7/anh2KOZ3G2NuWxvx2w0Rfy0m4cIAMK7Uu/WcQjIIdWYBC2eETgjTB/ClcQ3860UXXcRvfvMb7r33XorFYs02Yn4b7fnz5/O2t71tq3cB8s9DHMd0d3fz6U9/mo9+9KNp++CEdM2aNZx++unMmTOHgw8+mJaWFp566imWLVuWEop+7P7cY445hlNPXdjw2LxC+vCHP8x3v/tdVq1aNYwUveqqq7j55puZN28eu+++O5s2beL+++/nySefTMdar4w+97nPEQRBusHqzs4TNJxZCKBJVl3bIUp+N6i8IEhB8Rt/6pC4kF9ByO+RLB6aB21vgLAbPA2vFjSySD7A3rAEe/1dSNCOZk29MU2+qkVeT9hnKATw70cya+ssDKuKEcP3owGOq+T4u1w7JbWECLu1GN6za8B7ds2zrmy5Z2PEbWsjFq+PWDWYKAXnO7gKTLhlzru0Go7tqboFL9WD4s3qOI658cYbeeKJJwBqlID/vqenh8svvzwVvK3dLdhbBXEcc+aZZ7Jo0SIWLVpEGIZEUVQTjVixYgUrVqyoOX+ksXV3d3PllVemm5c4RTB6BMaP2VrL9OnTueKKK3j729+efueF2xjDxo0bWbRo0bAxZBWGH/unPvUpjj/++NRF8KT1zoyGl/CoJ8+Taj3th4IdUmwJ4l5FIyjso0z7O9jjCtjretjtn6HrTU4JqE2iDDZ5MPMB+tiz2POuRyR0bvdIhIPv3L2p/j9xQTyGKQGy4UlhdPOA1M9wmYrCeaU+HrUVCsZAUn0pVldFaXpeeMer8nzvoFaWH9XB7Ye18bG98uzbYcAqcSUp9R4rb5kWMiNvnBvyEhJKWaKuu7s73TIrawlYa2lvb+fmm2/mda97XUbQxm/2Vvtzj1cYhnz/+9/n8MMPT2fQekH0Jrk3vevH1tLSwo033sicOXNSEs+1MXbUIKuQFi5cyGWX/WuNm+T78sf5cWQJRN9XFEW8+93v5mtf+1rKnVT7Gdctagjb83lpWBE4dzjhClTomAcSQsv+woyz4DVXwV7fg13PFzqPdFyCWnEJRz4mb9JdENFSBXvWNbBxIyK5ZOGRjGwJpA9NcuNtkrCTRCRGcg18tMDtipS4AaPd2AzLLyJstDFnDW2mpDZt3CQ3yypEqsQKU3LC22bk+LcDW/njke385o1tnL9PntldLjrh3QKrulUCNZGoT+LxDzw48mvPPffk1ltv5YQTTqgTtK17GN31Vrco6+npYdGiRZx66qkpYSkiNcKYFf7s2GbNmsUtt9zCwoULhymSsW5pVgEaY4iiiHPP/STXXnstnZ2dNTsM+2P9OPzYsgrh7LPP5oYbbiCXy6VtTubvWp9rMZl9jWtRrw//gdJ+OOx9Pex1rbLLJ6DjMAjaXNVeTaoSOc7ACaIkfrNYhcAQX/hz7JLlSNBW6xKMBG9GCu7YXPLDSe2+hFmvQtRtiJITn/WYMW/H4A6ciyAsjYa4sNSX+P+SjkFIqAGosRQ6QuEtPTm+sX8r9x3RwZIj2zlxuvO8wh2ETFJVSqUSqkqlUiGOY7q6uvj4xz/OsmXLOO6440YQtK0ft/tdqjPy9OnT+cUvfsF3vvMd9tlnnzRUmA3dWWvTnX47Ojr4yEc+wrJly1iwYMFWjS17rHd3zjzzTO655x7e+c53pp9lx5Adh6rbMu3nP/85V111Ffl8vsatmYxZ27fp+/eulKpSLpdrOJ+JwrgKk2SJrrALwjnJ52ntPq1TLc4kT3+MWJEwIL79IfSb/4GYtnSvwTH7BUcg2iHM2QuRWdPcjkWmqghqx+keAKvQYwzn5dr551KvIxgz4cfRYEUwGL5R7ufYoMBJuRYiVYLMA+CvzrekWi313hII86bW3tqXkkzyfYsIs2bNIooiDjjgAObNm8epp57KfvvtB1Dn8277eOuF0M+0H/3oR3nve9/L7bffzp133smjjz7K2rVriaKI7u5u9t57b4455hgWLlzIAQccMAFjG24ZHHzwwfzsZz/jvvvu49Zbb+W+++5jzZo19Pf3UygU2HXXXZkzZw6nnHIK8+fPJ5fL1bgQ2fs6kci22d3dzfTp02ltbU0VVS6XSzMaJ7Jv0XGqlaw2rMbwqmZ7/dhS7ZWwvPbZTcRHfQHWvICYfLUq0MidJTn7BhsPYo6aTfDrz0EhTEIHwkhpzr5fn8SjwMLBDdwRDbkxpG7GKH2n12iZJSG/b5/ObmJSa8Fdp9SdUnsbPX84UUK1Lcj+Zn19feTzeVpaqjuveH93sh7wbAgymzDkYa2lr6+POI5pb29P9zWc6LFlz80SkR7FYpFisUgul0v3S8yOo95dmozfNNt2sVikv79/2LV3d3cThuGE/k7jVgTjgffhrE1cAmOI33kZ9pYlmKAdjROXQEcWyPQBJoIpHQRLv4x53W7Y5EfZ0szu/XMjwtM25qjBdfxVY0RMqiRGOAmvJIwI1sYsDNv4RdtUJ9w6PC99Z4T3hUcKwU3WddWb1FlffHuNbZjCTmZab21kj8sqi8lWAC81trLw15ZR/dFxSiAMsP96J3rLkoZChd7YUAOqMebyDyKv281lGBrjEo7G0GGpKShu6e8eQchVLd2JB5NlGOtOFJ8k5PmCgNuiIpeVBwilug/DthBp2xtZn9L/Zckwj8kmNOuFyUcJsiTdZI+tvh0fKYCq8GejGfWz8WQrgSzvkL0v2b/J4AgmxyJQn0DjwmgEBv3D/xAf9yUoxYia4UkAmXPxD0xg0Lgf8+FTCK7+kNvN2BjENGZuZwU2RgnF8I/FzXyr3IeRoFpcZNiJydgyXEABWNw2jSPCAnGyKWuarvAynCGaeGVhUiwCFZcZqHGSfrxpAHvWv0NxCMEvwBnlZO9TG4PGRWTO/gTffB9YixppWAm4pqphR5Mw/BcVOjk8aMFqxi0ZdmJ1LP51COXDQ5vZmFgy8XaaIZpoYntgwhWBqibx/eTVGOz5N2MffgIJWhsPFRIjrW0E1/490t2aRgJoUAl4iAhI1TJoNYZrWrroEkNagy3pd5QGUHVZh4/EFc730YfEdVC2b+JHE01MBiZcEYj4BUouVGhvXIK99peOF/DZWGP59oAaQW0J89W/xRy2d8ILSNr2uKHu3ECESJWDwjzfaulyG51Ql4k07FzN8AWG75UHuKE86PgC1XErpiaa2BExKRaBWsWEAXblc9hzr0ckoGbR3SiCo6pIEDhe4F3HYj65AE14gWwseLxwuichD3GZgR/KtXNG2FYNCY5hEaTjS5KWzi31sjKuECahyKZF0MTOjslxDYxgNw9i33slunEjEuSTAqijhevI8AJDyF57YK58f7VSsXHpqtsy80pq4gtG3Zbu32rpYl8Tjs0XVBtIXYRNavmb4kZ6rat12FQETezsmHjXwL+KwOt3Bwwald1Mrz7vP3uCJHk9gmIhDAn+/Sxklykuz8BIsmBnYkJHis86VKabgGtappBjpO3LEzgSIFlvIGlxk4NMrvYammhiJ8akcAQo0NVKcMPHCK75OPS0o/GAUwbZxT+JgCmOVFQ7iPnndyHHH+RChUnp8jSBcSLg49QJX3BsrsCF+U7nInihT4+FdEMTBIulB+Ga1inc2DaVLj+2CRpaE028VJjwPIJqCF5d+nBg0EeeIf7INbD0IUTaQEwaPfC8gI0HMG89lOCOT4MxiT8+cjrvNo8xm2CTJAktLG7grko2BdldiGhSZEQtRwctfKe1m4OCHLHqS1pjoIkmJhITn1CUhNTSGH5sIQygWCa+8GfoN24BFAkKLopgBLUV2GUqwdIvI3vPTF2C7ZHF5cnCNTbmyMF1POdTkHELJ20SVbgg38GXCl20Gkc2BlQr7kJTITSxc2PiE4okszkFIGHgzPzWHOHX30tw26dh9xlo3O9chWRZs7niTMzeM2tDhZNIwtWnIL8mCLmq0A0k6wkAq5bdxXBrWw9fb+2mVVyipK+GvL3STptoYrIxaWsN0nwCVbcPgeKE/JS5BEu+iLz9KDQeRKM+5NyFmNPfmIQKR9/lZsLHVxNStLwj38q5uQ5itVgb8/awhSXt01kYthJZt1F64BVUM3+giZcRJnX1oUcNbxBZyCVVab70M/R3jxHcdgG05JK9DyeHFxh1bNkFHCIMqXJKcQNvDvJ8oeCWolZU0+IiO/uqwyaaGAnbRRFkeQMg5QBUBCoRkgtfcl87239Fk8pGuKKmgR93Uwk08TLF9lEECeoLVIi6GgVZAXsphG2k/q3nOJqEYBOvAGxXRQDDlcFI718KpP0nex3sKONqoontge2uCJpoookdD/8fVOyQ5uVAFCQAAAAASUVORK5CYII=;" parent="1" vertex="1">
          <mxGeometry x="1195" y="-40" width="91.05" height="30" as="geometry" />
        </mxCell>
      </root>
    </mxGraphModel>
  </diagram>
</mxfile>
